<?xml version="1.0" encoding="UTF-8"?>
<!DOCTYPE svg PUBLIC "-//W3C//DTD SVG 1.1//EN" "http://www.w3.org/Graphics/SVG/1.1/DTD/svg11.dtd">
<!-- Creator: CorelDRAW 2019 (64-Bit Version dՎvaluation) -->
<svg xmlns="http://www.w3.org/2000/svg" xml:space="preserve" width="627px" height="608px" version="1.1" style="shape-rendering:geometricPrecision; text-rendering:geometricPrecision; image-rendering:optimizeQuality; fill-rule:evenodd; clip-rule:evenodd"
viewBox="0 0 177.85 172.49"
 xmlns:xlink="http://www.w3.org/1999/xlink"
 xmlns:xodm="http://www.corel.com/coreldraw/odm/2003">
 <defs>
  <style type="text/css">
   <![CDATA[
    .fil0 {fill:#262626}
    .fil96 {fill:#3B6CCA}
    .fil31 {fill:#4664C9}
    .fil60 {fill:#4D5ECA}
    .fil7 {fill:#535ACA}
    .fil5 {fill:#5D52C9}
    .fil39 {fill:#624FCA}
    .fil15 {fill:#664DCA}
    .fil9 {fill:#6B4AC8}
    .fil3 {fill:#7545C7}
    .fil16 {fill:#7941C9}
    .fil10 {fill:#833BC8}
    .fil77 {fill:#8441BE}
    .fil11 {fill:#8939C8}
    .fil56 {fill:#8B3EBA}
    .fil6 {fill:#9335C6}
    .fil41 {fill:#983BB5}
    .fil42 {fill:#9933C4}
    .fil29 {fill:#9C33C3}
    .fil46 {fill:#A331C1}
    .fil54 {fill:#A33AAC}
    .fil20 {fill:#A635B5}
    .fil59 {fill:#AB31BD}
    .fil8 {fill:#AC39A9}
    .fil25 {fill:#B331B9}
    .fil87 {fill:#B339A2}
    .fil37 {fill:#B431B4}
    .fil52 {fill:#B836A8}
    .fil12 {fill:#BA3A9B}
    .fil26 {fill:#BB32B4}
    .fil90 {fill:#C133B1}
    .fil91 {fill:#C437A4}
    .fil93 {fill:#C535AD}
    .fil4 {fill:#C53A96}
    .fil2 {fill:#C936AA}
    .fil44 {fill:#CB3D8B}
    .fil40 {fill:#CC39A3}
    .fil51 {fill:#CD399D}
    .fil43 {fill:#D13C9A}
    .fil79 {fill:#D23E84}
    .fil35 {fill:#D33D95}
    .fil101 {fill:#D53D91}
    .fil50 {fill:#D73F8E}
    .fil23 {fill:#D83E8B}
    .fil21 {fill:#D94089}
    .fil82 {fill:#DA4279}
    .fil105 {fill:#DA427A}
    .fil57 {fill:#DB4186}
    .fil61 {fill:#DC4184}
    .fil49 {fill:#DD4282}
    .fil98 {fill:#DF437E}
    .fil19 {fill:#DF447C}
    .fil102 {fill:#E14470}
    .fil67 {fill:#E1447A}
    .fil58 {fill:#E34576}
    .fil97 {fill:#E44674}
    .fil65 {fill:#E54671}
    .fil48 {fill:#E6476E}
    .fil104 {fill:#E84567}
    .fil55 {fill:#E8486C}
    .fil69 {fill:#E94869}
    .fil17 {fill:#E94966}
    .fil73 {fill:#EC4A64}
    .fil53 {fill:#ED4B5F}
    .fil33 {fill:#F04C5C}
    .fil81 {fill:#F14C5B}
    .fil99 {fill:#F14D58}
    .fil36 {fill:#F34D56}
    .fil103 {fill:#F44E54}
    .fil74 {fill:#F44F51}
    .fil70 {fill:#F64F4F}
    .fil68 {fill:#F74F4E}
    .fil89 {fill:#F8504C}
    .fil88 {fill:#F9514A}
    .fil66 {fill:#FA5149}
    .fil71 {fill:#FB5246}
    .fil94 {fill:#FC5244}
    .fil92 {fill:#FD5342}
    .fil78 {fill:#FE533D}
    .fil63 {fill:#FE5441}
    .fil86 {fill:#FE5C3E}
    .fil75 {fill:#FE6240}
    .fil85 {fill:#FE8947}
    .fil1 {fill:#FEFDFE}
    .fil95 {fill:#FF593F}
    .fil100 {fill:#FF5E40}
    .fil62 {fill:#FF6641}
    .fil14 {fill:#FF6A42}
    .fil27 {fill:#FF7143}
    .fil34 {fill:#FF7644}
    .fil72 {fill:#FF7944}
    .fil38 {fill:#FF7D45}
    .fil30 {fill:#FF8246}
    .fil32 {fill:#FF8C47}
    .fil83 {fill:#FF8E48}
    .fil80 {fill:#FF9549}
    .fil64 {fill:#FF9B4A}
    .fil24 {fill:#FFA44B}
    .fil76 {fill:#FFAC4D}
    .fil13 {fill:#FFB24E}
    .fil18 {fill:#FFBA4F}
    .fil28 {fill:#FFBE50}
    .fil45 {fill:#FFC54E}
    .fil47 {fill:#FFCB51}
    .fil22 {fill:#FFD353}
    .fil84 {fill:#FFDB55}
   ]]>
  </style>
 </defs>
 <g id="Plan_x0020_1">
  <metadata id="CorelCorpID_0Corel-Layer"/>
  <g id="_2872315106704">
   <path class="fil0" d="M95.83 168.65c0,-2.63 0.53,-4.13 2.37,-6.31 1.03,-1.21 2.54,-3.09 3.76,-3.91 0,3.19 -0.08,6.62 -0.88,9.09 -1.43,4.43 -5.25,2.67 -5.25,1.13zm2.63 3.84l-0.89 0c-2.85,-0.17 -5.32,-1.96 -5.32,-4.35l0 -1.79c0,-4.14 6.15,-8.05 8.9,-11.03 0.8,-0.86 0.55,-0.73 0.55,-2.25 -1.53,1.02 -2.65,3.06 -4.85,3.06 -5.61,0 -4.25,-1.75 -6.39,-3.32 -1.27,4.75 -8.78,4.25 -9.2,-0.77 -1.56,1.14 -2.15,4.09 -5.88,4.09 -3.97,0 -4.87,-1.52 -6.38,-4.6 -0.22,-0.43 -0.24,-0.45 -0.52,-0.76 -0.33,1.41 -1.03,2.34 -1.78,3.33 -1.08,1.43 -2.24,2.03 -4.09,2.03 -3.8,0 -5.37,-4.69 -5.37,-7.92l-0.85 1.71c-0.8,1.52 -1.85,2.67 -3.04,3.85 -2.62,2.61 -6.8,3.1 -10.52,1.95 -3.18,-0.98 -2.46,-3.41 -0.16,-4.95 1.64,0.38 1.96,1.76 3.93,1.95 1.45,0.14 2.46,-1.54 2.46,-2.98 0,-2.1 -3.15,-5.24 -4.85,-6.38l-4.43 7.33c-3.83,6.5 -9.88,8.11 -9.88,-0.18l0.25 -13.03c-3.18,2.13 -5.77,10.91 -6.69,14.77 -0.24,0.98 -0.2,2.95 -0.78,3.57 -0.58,0.62 -2.48,0.55 -3.3,0.1 -0.75,-0.4 -1.24,-1.72 -1.24,-2.85 0,-3.85 -0.4,-16.58 0.26,-19.42 1.42,0 2.33,-0.07 3.48,0.6 0.57,0.33 0.66,0.52 0.81,1.23l0.05 8.9c0.04,-0.05 0.08,-0.13 0.1,-0.16l0.18 -0.33c0.03,-0.07 0.13,-0.27 0.16,-0.35 0.19,-0.42 0.17,-0.39 0.29,-0.73 0.24,-0.65 0.34,-1.08 0.58,-1.72 1.54,-4.03 5.32,-10.54 10.15,-5.87 1.09,1.06 0.81,1.82 0.81,3.79 -0.01,3.1 -0.26,5.83 -0.26,9.2 0,9.64 6.03,-4.75 7.67,-6.64 -0.6,-0.9 -1.28,-1.55 -1.28,-3.07 0,-2.74 2.27,-5.36 5.11,-5.36 4.64,0 1.05,5.59 0,7.15 4.01,2.68 7.41,4.92 7.41,9.71 1.44,-1.66 3.33,-3.84 3.33,-6.39l0 -10.99c-2.03,0 -5.37,0.59 -5.37,-0.76 0,-1.54 0.4,-2.14 1.02,-3.07l4.86 0.26 0 -4.86c0,-0.84 0.34,-2.3 1.02,-2.3 1.19,0 4.34,0.75 4.34,1.79l-0.25 5.62c2.12,0 5.19,0.12 6.9,0.51 0,4.15 -1.99,3.07 -6.9,3.07 0,2.12 -0.27,3.2 -0.26,5.36 0.01,1.85 0.06,3.81 0.01,5.64 -0.04,1.28 -0.3,1.33 -0.27,2.54 0.07,2.98 1.02,9.36 4.5,4.24 0.42,-0.6 0.98,-1.83 1.23,-2.6 0.58,-1.85 0.18,-14.92 8.08,-14.92 2.09,0 2.96,1.28 4.34,2.29 0.17,-2 2.07,-1.6 3.43,-1.12 1.06,0.37 0.65,0.35 1.42,0.87 0,4.13 -0.25,7.35 -0.25,11.5 0,7.68 2.8,8.04 4.25,4.76 0.81,-1.83 0.35,-4.67 0.35,-6.81 0,-4.91 2.73,-11.49 7.41,-11.49 2.63,0 3.14,1.32 4.6,2.29 0.06,-2.89 3.77,-0.98 4.85,-0.25 0,1.59 -0.26,1.99 -0.26,3.57l0.01 11.25c1.01,-0.74 3,-4.82 3.65,-6.32 2.71,-6.23 0.18,-4.01 0.18,-6.97 0,-2.14 0.98,-4.09 3.32,-4.09 2.27,0 2.3,1.31 2.3,3.58 8.18,-1.9 8.17,-0.88 6.97,5.17 -0.49,2.48 -0.58,4.77 -0.58,7.35 0,3.44 2.65,6.83 4.48,2.68 0.53,-1.21 0.25,-1.75 0.12,-3.18 -0.24,-2.53 -0.2,-4.33 0.28,-6.88 0.65,-3.46 3.08,-8.2 7.13,-8.2 2.49,0 3.24,1.39 4.6,2.29 0.02,-0.92 0.11,-1.53 1.02,-1.53 4.75,0 3.58,2.18 3.58,7.67 0,2.61 -0.87,11.75 1.79,11.75 1.4,0 2.41,-2.17 2.89,-3.5 0.61,-1.7 0.43,-3.28 0.43,-5.44 0,-0.98 -0.05,-2.11 0,-3.07l0.24 -5.64c-0.04,-2.48 0.61,-2.46 3.45,-1.63 1.13,0.33 1.17,0.56 1.19,1.88 0.03,2.03 -0.02,4.12 -0.02,6.16 0.86,-1.24 1.88,-5.36 2.79,-7.17 1.02,-2.02 3.78,-1.4 5.09,0.05 1.38,1.53 0.77,5.11 0.8,7.13 0.01,1.47 0.26,1.92 0.26,3.57l0.26 0c0,-3.17 1.63,-6.97 2.73,-9.79 0.34,-0.87 0.84,-2.22 1.87,-2.22 1.44,0 3.72,0.84 4.39,1.74 1.34,1.82 -1.65,17.68 2.51,17.68 2.5,0 1.18,-4.81 3.57,-5.37 0.3,0.45 0.5,0.45 0.51,0.97l0 0.05c0,8.33 -6.53,9.18 -9,5.17 -2.49,-4.03 -1.73,-9.79 -1.73,-14.62 -0.03,0.05 -0.07,0.12 -0.09,0.16l-0.64 1.4c-0.27,0.68 -0.38,0.91 -0.64,1.66 -1.34,3.81 -1.95,6.82 -1.95,11.34 -1.79,1.2 -3.88,1.03 -4.87,-1.26 -1.24,-2.91 -1.26,-9.55 -1.26,-13.05 -1.17,0.31 -1.48,2.13 -1.9,3.21 -1.1,2.77 -1.71,5.41 -1.68,8.55 0.01,1.52 -0.04,3.62 -0.51,4.6 -1.04,0.49 -2.48,0.5 -3.72,0.15 -1.59,-0.44 -1.39,-1.14 -1.39,-2.96l-0.73 1.06c-0.06,0.09 -0.58,0.78 -0.66,0.87 -2.31,2.54 -6.92,0.88 -7.81,-2.96 -0.76,0.88 -1.43,1.98 -2.37,2.75 -0.73,0.6 -2.27,1.34 -3.51,1.34 -4.81,0 -3.56,-1.51 -5.88,-3.06 -1.13,4.24 -6.86,3.88 -9.1,0.15 -2.74,-4.57 -0.71,-9.96 -0.35,-14.21 -0.6,0 -1.21,-0.01 -1.81,0 -0.2,0.01 -1.33,0.12 -1.35,0.13 -0.65,0.26 -0.73,1.32 -1.11,2.25 -1.67,4 -3.81,7.55 -6.39,10.98 -0.37,0.49 -1.35,1.51 -1.35,1.97 0,4.19 0.49,8.19 -0.67,12.11 -1.24,4.15 -4.15,5.87 -6.92,6.04zm36.21 -19.42c-1.54,0 -1.99,-0.21 -2.59,-1.75 -1.38,-3.5 -1.31,-14.35 3.1,-14.35 3.65,0 3.07,6.26 3.07,8.69 0,2.17 -1.34,7.41 -3.58,7.41zm-58.52 0c-2.48,0 -3.07,-4.1 -3.07,-6.9 0,-11.73 7.16,-11.53 7.16,-3.84 0,3.37 -0.32,10.74 -4.09,10.74zm21.21 0c-4.92,0 -3.78,-16.1 1.02,-16.1 5.21,0 3.31,16.1 -1.02,16.1z"/>
   <path class="fil1" d="M57.71 60.66l-0.01 -2.06 0 -2.89 0 -1.87 0 -2.07 0 -1.29 0.01 -2.01 0.01 -1.32 0.02 -1.43 0.02 -1.51 0.04 -1.49 0.18 -4.23 0.2 -2.21 0.6 -2.91c0.19,-1.22 0.6,-2.5 1.25,-3.3l1.18 -1.96c2.98,-4.05 7.02,-5.63 13.92,-5.99 6.26,-0.33 12.66,-0.18 18.95,-0.19l14.24 0.25c3.99,0.3 9.22,1.4 11.16,3.8l1.67 1.76c0.82,0.71 1.59,1.95 1.7,2.95 0.83,0.84 1.2,2.69 1.38,4.06l0.52 4.73 0.19 7.25c0.02,3.24 0.42,23.15 -0.33,24.45l0.14 0.61c-0.05,0.95 0,1.91 -0.37,2.55 0.16,1 0.01,2.35 -0.52,3.06 0.04,0.99 -0.27,1.7 -0.62,2.59 -0.3,0.64 -0.54,1.18 -0.86,1.75 -0.18,0.33 -0.26,0.48 -0.51,0.78 -0.45,0.52 -0.26,0.28 -0.6,0.53 -0.1,0.75 0.32,0.15 -0.51,0.9 -0.33,0.29 -0.48,0.33 -0.84,0.54 -0.53,1.15 -1.31,1.41 -2.52,2.18l-1.39 0.8 -1.78 0.45 -0.71 0.3 -2.69 0.52 -3.38 0.08c-1.3,0.8 -15.82,0.36 -18.57,0.38l-13.07 -0.2c-2.61,-0.09 -4.96,-0.29 -7.4,-1.03 -1.81,-0.55 -4.61,-1.64 -5.18,-3.05 -0.88,-0.34 -2.2,-1.73 -2.7,-2.9l-1.04 -1.94 -0.78 -2.31 -0.26 -0.95 -0.26 -1.63 -0.25 -3.18c-0.04,-1.04 -0.19,-1.5 0.11,-2.42 -0.03,-0.06 -0.06,-0.15 -0.07,-0.2 -0.01,-0.05 -0.05,-0.14 -0.06,-0.21l-0.21 -8.52zm-1.38 -38.43c-0.4,0.67 0.06,-0.07 -0.36,0.49l-1.52 2.07 -2.06 3.83 -0.44 1.62 -1.04 4.46 -0.25 2.32 -0.24 3.14 -0.01 2.51 -0.04 1.45 -0.04 2.64 0.01 18.21 0.03 2.2c0.04,1.3 0.28,2.9 -0.08,4.06 0.33,0.67 0.19,0.42 0.28,1.33 0.03,0.39 0.03,0.81 0.07,1.22l0.15 3.13c0.45,0.69 0.32,0.42 0.24,1.32 0.47,0.62 0.28,0.16 0.24,1.07 0.46,0.54 0.83,1.89 0.8,2.65 0.29,0.34 -0.03,-0.21 0.38,0.51 0.17,0.3 0.14,0.33 0.27,0.69l0.6 1.67c0.65,0.54 0.34,0.26 0.75,0.91 0.5,0.79 0.41,0.5 0.5,1.18 0.56,0.44 0.52,0.31 0.89,1 0.5,0.54 1.2,1.11 1.62,1.71 0.89,0.62 1.89,1.8 2.99,2.6 0.3,0.13 2.96,1.66 3.05,1.78 2.09,0.55 3.7,1.37 6.15,1.81 1.87,0.34 5.58,0.17 6.93,0.84l17.68 -0.04 6.92 -0.03 2.23 -0.03 0.72 0 6.11 -0.3 4.72 -0.72 2.27 -0.37c0.55,-0.52 1.22,-0.73 2.06,-0.75 0.54,-0.67 1.73,-1.15 2.53,-1.4 0.35,-0.33 0.63,-0.48 0.99,-0.74 0.15,-0.11 0.54,-0.38 0.6,-0.42 0.53,-0.3 0.09,-0.15 0.63,-0.26 0.25,-0.36 0.12,-0.16 0.4,-0.47 0.24,-0.26 0.31,-0.33 0.51,-0.55 0.64,-0.71 0.35,-0.56 1.11,-0.99 0.33,-0.69 0.46,-0.65 1.12,-1 0.25,-0.7 0.6,-1.35 1.24,-1.7l1.21 -2.33 1.54 -3.57 0.61 -2.28 0.66 -5.37 0.22 -5.59 0.04 -1.98 0.02 -2.34 0.02 -6.71 -0.02 -9.8 -0.05 -3.21 -0.12 -2.99c0.18,-3.99 -0.76,-9.82 -2.43,-13.06l-0.97 -2.06c-0.48,-0.66 -0.72,-1.02 -0.97,-1.71 -0.61,-0.31 -0.29,-0.16 -0.6,-0.53 -0.28,-0.33 -0.29,-0.44 -0.57,-0.75 -0.69,-0.73 -0.78,-0.39 -1.17,-1.29 -0.98,-0.51 -0.64,-0.54 -1.42,-1.22 -0.3,-0.26 -0.43,-0.3 -0.72,-0.56 -0.43,-0.37 -0.43,-0.43 -0.66,-0.73 -0.54,-0.06 -0.27,-0.01 -0.85,-0.31 -0.24,-0.13 -0.59,-0.36 -0.8,-0.48 -0.51,-0.28 -1,-0.52 -1.47,-0.77l-1.83 -0.84c-1.15,-0.21 -2.9,-0.54 -3.72,-1.14 -0.82,0.08 -8.55,-0.6 -8.88,-0.77 -1.19,0.24 -2.49,0.1 -3.75,0.08l-18.02 -0.02 -6.46 0.03c-2.57,0.73 -11.89,-0.56 -18.85,6.13l-1.7 1.52z"/>
   <path class="fil1" d="M104.44 58.76c0.04,0.98 -0.13,1.68 -0.78,2.29 -0.07,1.07 -0.98,2.56 -1.86,2.97 -0.26,0.99 -1.06,1.7 -2.07,2.1 -0.26,0.64 -0.6,0.77 -1.25,1.11l-2.06 1.03 -2.56 0.78c-2.99,0.4 -5.96,0.06 -8.45,-1.12 -1.37,-0.64 -4.79,-2.9 -5.07,-4.53 -0.25,-0.2 -0.21,-0.16 -0.45,-0.42 -0.04,-0.04 -0.53,-0.41 -1.49,-2.93l-0.53 -2.29 0 -4.47 0.29 -1.15c0.2,-0.85 0.48,-2.24 1.01,-2.56l1.28 -2.17c0.42,-0.7 0.76,-1.16 1.31,-1.67l1.29 -0.99c0.67,-0.36 -0.5,-0.01 0.49,-0.18 0.21,-0.25 0.16,-0.2 0.42,-0.44 0.02,-0.02 1.14,-1.07 2.46,-1.09 0.68,-0.68 1.76,-0.87 2.82,-0.78 1.92,-1.28 6.27,0.15 8.05,1 2.12,1 4.41,2.88 5.21,4.57 0.77,0.67 1.5,2.29 1.82,3.53l0.53 1.96c0.19,1.63 0.48,4.24 -0.41,5.45zm-16.35 -24.03c-4.37,0.89 -6.19,1.85 -9.26,3.89 -0.89,0.6 -1.68,1.4 -2.42,1.96l-2.09 2.46c-0.01,-0.04 -0.07,0.07 -0.11,0.1 -0.44,0.88 -0.24,0.79 -0.99,1.27 -0.07,0.79 -0.34,1.12 -0.84,1.83l-1.7 4.26c0.05,0.89 -0.09,2.23 -0.48,2.87l0.11 3.4 0.01 0.47 0.52 3.24 1.03 3.11 0.62 1.81c0.44,0.36 0.51,0.39 0.86,1.04 0.41,0.74 0.29,0.42 0.38,1.07 0.67,0.38 0.98,0.95 1.53,1.61 0.27,0.32 0.43,0.51 0.69,0.85 0.46,0.57 0.33,0.27 0.56,0.84 1.08,0.5 1.73,1.29 2.88,2.1 0.42,0.29 2.49,1.5 2.64,1.69 1.22,0.33 2.35,0.88 3.62,1.26 1.16,0.34 3.07,0.33 3.95,0.89l1.03 -0.13 1.66 -0.01 3.71 -0.51 1.48 -0.16 0.37 -0.25c0.12,-0.07 0.43,-0.24 0.56,-0.29 0.71,-0.24 0.37,-0.15 1.08,-0.16 0.5,-0.6 0.88,-0.76 1.65,-0.8 0.55,-0.66 0.25,-0.34 0.92,-0.76 0.81,-0.52 0.51,-0.41 1.19,-0.49 0.56,-0.69 0.49,-0.78 1.37,-0.97 0.38,-0.9 0.43,-0.84 1.16,-1.16 0.38,-0.58 1.38,-1.89 2.11,-2.14 0.26,-0.77 0.09,-0.41 0.58,-1.12 0,-0.01 0.27,-0.33 0.3,-0.37 0.61,-0.64 -0.19,-0.07 0.3,-0.22l1.28 -2.31 0.75 -2.08 0.76 -2.77 0.5 -3.19 0.03 -0.9 0.12 -2.1 -0.73 -4.15c-0.56,-0.57 -0.51,-0.86 -0.68,-1.67 -0.2,-0.21 -1.47,-2.93 -1.82,-3.49 -0.45,-0.74 -0.59,-1.01 -1.12,-1.69 -0.4,-0.52 -0.86,-0.91 -1.13,-1.47 -0.85,-0.61 -1.43,-1.34 -2.38,-2.16 -0.62,-0.54 -1.73,-1.25 -2.74,-1.93l-3.81 -1.72c-4.25,-0.96 -5.37,-1.28 -10.01,-0.85z"/>
   <path class="fil2" d="M129.74 27.65c1.67,3.24 2.61,9.07 2.43,13.06l0.09 -1.1c0.7,-0.08 -0.04,-0.3 0.59,0.7l0.13 -0.92c1.08,1.48 2.52,2.43 3.84,3.69l6.11 7.42c0.04,0.04 0.08,0.1 0.12,0.14l2.66 3.49c0.09,0.14 0.28,0.51 0.37,0.62l0.36 0.27c1.69,0.55 -1.28,-0.71 0.49,0.05 0,-3.79 0.26,-28.7 -0.17,-32.15 -0.13,-1.02 0.05,-1.41 -0.34,-1.88l-16.51 6.49c-0.03,-0.06 -0.11,0.08 -0.17,0.12z"/>
   <path class="fil0" d="M0 134.92c0,6.94 5.48,7.81 5.88,7.41 0.4,-0.87 -0.35,-1.69 -0.78,-2.54 -1.47,-2.93 -0.66,-7.68 0.6,-10.41 0.71,-1.51 1.79,-3.4 3.24,-4.17 0,6.05 0,12.1 0,18.15 0,3.7 0.28,9.47 -0.43,13.11 -0.31,1.55 -0.84,2.13 -0.84,3.75 2.12,0.45 4.1,-1.94 4.98,-3.7 1.07,-2.14 1.4,-4.97 1.4,-8.05l0 -24.02c0,-1.69 -3.33,-4.23 -7.61,-0.72 -2.96,2.44 -6.44,6.82 -6.44,11.19z"/>
   <path class="fil3" d="M36.19 23.51c-0.7,0.36 -0.36,0.04 -0.44,1.26 -0.03,0.43 0.02,1.24 0.02,1.72l0.31 0.28c0.02,0.03 0.16,0.17 0.21,0.24 2.82,-0.19 11.37,-3.05 14.49,-3.87 0.82,-0.22 1.78,-0.22 2.58,-0.5 1.2,-0.42 1.24,-0.64 2.97,-0.41l1.7 -1.52c6.96,-6.69 16.28,-5.4 18.85,-6.13l-3.56 0.06c1.38,-1.85 1.75,-0.3 4.32,-1.91 0.52,-0.33 0.44,-0.24 1.02,-0.53 1.04,-0.52 0.64,-0.66 1.38,-0.89l1.92 -0.39c0.22,-0.39 1.17,-0.77 1.6,-0.96 4.14,-1.8 13.85,-7.26 16.09,-9.96l-6.83 0c-1.05,1.78 -4.99,3.93 -6.47,4.85 -3.35,2.1 -3.22,2.21 -7.43,4.32 -2.46,1.24 -0.25,-0.19 -4.21,2.16l-24.73 8.74c-0.64,0.34 -13.25,3.86 -13.79,3.44z"/>
   <path class="fil4" d="M58.18 36.28l-0.2 2.21c0.93,-0.05 1.96,-0.04 2.87,-0.11 2.15,-0.19 1.24,-0.63 1.25,-0.69 1.55,-0.03 1.95,-0.34 3.11,-0.49 1.39,-0.18 2.33,-0.05 3.57,-0.34 1.92,-0.47 4.22,-0.75 6.18,-1.18 1.25,-0.27 1.84,-0.21 3.2,-0.39 1.04,-0.13 1.89,-0.56 3.13,-0.64 1.28,-0.09 2.44,0.02 3.72,-0.17 1.06,-0.16 2.55,-0.46 3.08,0.25 4.64,-0.43 5.76,-0.11 10.01,0.85 0.84,-0.85 0.55,-0.23 2.49,-0.49 2.17,-0.29 4.49,-0.62 7.25,0.03 0.62,-1.13 -0.04,-0.08 0.55,-0.68l0.03 -2.12c-1.17,-1.03 -3.92,-0.52 -5.57,-0.31l-5.15 -0.06c-2.97,-0.25 -2.1,0.11 -2.79,0.28 -2.19,0.54 -5.58,0.54 -7.91,0.31 1.26,-0.74 3.6,-0.07 4.45,-1.34 -1.51,0.08 -3.2,-0.06 -4.6,0.28 -1.39,0.33 -2.74,0.49 -4.3,0.61 -0.83,0.07 -1.07,0.21 -1.86,0.38l-16.83 3.12c-0.81,0.17 -1.71,0.2 -2.25,0.33 -4.03,0.95 -2.69,1.2 -3.43,0.36z"/>
   <path class="fil5" d="M37.47 16.61c-0.55,0.53 -0.15,-0.33 -0.54,0.91 -0.18,0.57 -0.12,0.49 -0.14,1.13l0.03 1.01c3.18,-0.63 22.13,-6.89 25.43,-8.54 3.93,-1.97 3.07,-0.65 7.47,-3.28l4.26 -2.41c1.95,-1.2 3.1,-2.13 4.67,-3.7 0.39,-0.39 0.62,-0.68 1.02,-1.04 0.76,-0.69 0.13,-0.3 1.08,-0.69l-7.55 0c-0.05,0.88 0.33,0.03 -0.44,0.95l-2.61 2.5c-2.73,2.13 -5.15,3.5 -8.24,5.04 -1.14,0.57 -3.43,1.54 -4.39,2.27 -0.94,0.71 -3.79,1.17 -5.02,1.63l-14.9 5c-0.03,-0.05 -0.11,-0.18 -0.11,-0.14l-0.02 -0.64z"/>
   <path class="fil6" d="M86.88 14.52l-3.54 -0.01 0 0.04 18.02 0.02c3.64,-0.69 5.82,-2.12 8.94,-3.36 1.12,-0.45 0.76,-0.48 1.69,-0.87 5.72,-2.36 1.71,-1.07 4.53,-2.37 1.02,-0.47 0.74,-0.57 1.66,-0.87 2,-0.65 0.42,0.14 1.68,-0.95l6.9 -4.32c0.71,-0.69 0.61,-0.48 0.29,-1.32 -1.2,0 -2.29,-0.19 -3.51,-0.37 -0.68,-0.1 -1.31,-0.13 -1.96,-0.14l-0.05 0 -1.33 0 -0.31 0c0.27,0.39 0.17,0.2 0.31,0.86l-14.08 8.17c-2.59,1.73 -5.73,2.89 -8.8,4.26 -2.13,0.94 -1.93,1.02 -4.81,1.12 -1.85,0.07 -3.86,0.32 -5.63,0.11z"/>
   <path class="fil7" d="M38.43 14.05c-0.41,0.36 -0.1,-0.02 -0.4,0.45 -0.22,0.36 -0.16,0.2 -0.34,0.72 -0.26,0.76 -0.26,0.79 -0.22,1.39l0.02 0.64c0,-0.04 0.08,0.09 0.11,0.14l14.9 -5c1.23,-0.46 4.08,-0.92 5.02,-1.63 0.96,-0.73 3.25,-1.7 4.39,-2.27 3.09,-1.54 5.51,-2.91 8.24,-5.04l2.61 -2.5c0.77,-0.92 0.39,-0.07 0.44,-0.95l-8.97 0c0.27,0.17 0.12,0.05 0.46,0.23 0.14,0.08 0.33,0.28 0.36,0.22 0.04,-0.06 0.14,0.07 0.2,0.12l-0.77 1.03c-2.16,3.38 -11.49,8.57 -14.91,9.08l0 0.34c-3.02,0.8 -6.77,2.99 -10.98,3.75 -0.34,-0.43 -0.64,0.71 -0.16,-0.72z"/>
   <path class="fil8" d="M60.03 30.07c-0.65,0.8 -1.06,2.08 -1.25,3.3 1.85,-0.13 2.69,-0.61 4.13,-0.79l4.55 -0.58c0.11,-0.28 0.06,-0.25 0.06,-0.33 -0.05,-0.71 -0.14,0.39 -0.06,-0.13 2.22,-0.18 3.19,-0.66 3.86,-0.75 2.18,-0.29 3.2,0.19 5.19,-0.51l1.15 -0.35c0.7,-0.14 1.38,-0.2 2.32,-0.23 1.22,-0.05 2.9,-0.36 4.18,-0.61 1.41,-0.74 2.64,-0.77 4.6,-0.92 0.71,-0.15 0.07,0.11 0.51,-0.4l-1.71 -0.1 2.07 -1.14c1.44,-0.62 4.27,-0.35 6.05,-0.64 0.84,-0.13 2.02,-0.35 2.64,-0.4 -0.78,-0.4 -0.36,-0.07 -0.77,-0.72 -0.51,0.03 -0.66,-0.02 -1.06,-0.02 -0.37,-0.01 -2.92,0.26 -3.1,-0.12 -0.04,-0.09 -0.14,-0.06 -0.21,-0.1 0.45,-0.34 -0.07,-0.13 0.65,-0.26 1.52,-0.28 -1.12,0 0.43,-0.02 0.95,-0.02 -0.25,0.57 1.69,-0.38 0.29,-0.13 0.31,-0.13 0.47,-0.16 -2.25,-0.03 -3.76,0.55 -5.76,0.85l-4.77 0.38c-0.4,0.05 -0.32,0.06 -0.59,0.13 -3.91,1.05 -7.64,1.73 -11.71,1.85 -0.14,0.6 -0.32,-0.67 0.18,0.18 0.29,0.5 0.25,-0.3 0.08,0.27 -1.54,0 -2.52,0.19 -3.74,0.59 -3.63,1.18 -3.08,0.89 -6.98,1.67 -1.59,0.32 -2.53,0.79 -3.1,0.44z"/>
   <path class="fil9" d="M36.54 21.47c-0.82,0.34 -0.32,-0.04 -0.49,0.77 -0.12,0.6 0.03,0.81 0.14,1.27 0.54,0.42 13.15,-3.1 13.79,-3.44l24.73 -8.74c3.96,-2.35 1.75,-0.92 4.21,-2.16 4.21,-2.11 4.08,-2.22 7.43,-4.32 1.48,-0.92 5.42,-3.07 6.47,-4.85l-3.82 0c-0.92,0.74 -1.35,1.37 -2.45,2.2l-7.17 4.74c-1.28,0.51 -0.73,0.32 -1.52,0.89 -1.88,1.36 -4.34,2.09 -6.6,2.78 -0.7,0.22 -1.2,0.41 -1.89,0.73 -3.36,1.56 -6.78,2.53 -10.16,3.86 -3.92,1.55 -2.42,0.71 -5.71,1.5 -1.87,0.45 -1.29,0.81 -2.76,1.21l-11.15 3.2c-1.98,0.57 -3.06,1.18 -3.05,0.36z"/>
   <path class="fil10" d="M83.34 14.51l3.54 0.01c-0.32,-0.77 0.15,-0.9 -0.31,-0.49 1.3,-0.1 1.23,-0.42 1.69,-0.71 0.02,-0.01 0.09,-0.05 0.11,-0.06 0.78,-0.43 4.92,-0.49 5.45,-1.87 0.32,-0.84 0.19,0.02 -0.07,-0.21 -0.39,-0.34 -0.2,0 -0.22,0.06 2.61,-0.23 3.87,-1.28 5.85,-2.27 1.01,-0.51 1.62,-0.79 2.54,-1.32l3.09 -1.75c0.05,-0.03 0.12,-0.06 0.17,-0.09l1.86 -1.21c0.05,-0.03 0.11,-0.07 0.16,-0.1l1.67 -0.89c0,0 0.42,-0.26 0.48,-0.29 0.97,-0.64 3.61,-2.44 4.37,-3.32l-8.32 0c-0.38,0.74 -1,1.1 -1.76,1.69 -1.04,0.81 -0.91,1.04 -1.63,1.68 -1.76,1.56 -3.73,1.84 -4.26,2.15l-2.6 1.72c-0.3,0.19 0.01,0.06 -0.52,0.28 -2.91,1.2 -0.85,0.41 -3.18,1.67l-1.53 0.78c-0.28,0.08 -0.46,0.08 -0.74,0.1 -0.05,0.34 1.16,-0.13 -0.34,0.55l-2.91 1.22c-0.51,0.22 -0.91,0.3 -1.35,0.49l0 0.44c-2.99,0.22 -1.23,0.38 -3.39,1.21l2.15 0.53z"/>
   <path class="fil11" d="M86.88 14.52c1.77,0.21 3.78,-0.04 5.63,-0.11 2.88,-0.1 2.68,-0.18 4.81,-1.12 3.07,-1.37 6.21,-2.53 8.8,-4.26l14.08 -8.17c-0.14,-0.66 -0.04,-0.47 -0.31,-0.86l-6.17 0c-0.76,0.88 -3.4,2.68 -4.37,3.32 -0.06,0.03 -0.48,0.29 -0.48,0.29l-1.67 0.89c-0.05,0.03 -0.11,0.07 -0.16,0.1l-1.86 1.21c-0.05,0.03 -0.12,0.06 -0.17,0.09l-3.09 1.75c-0.92,0.53 -1.53,0.81 -2.54,1.32 -1.98,0.99 -3.24,2.04 -5.85,2.27 0.02,-0.06 -0.17,-0.4 0.22,-0.06 0.26,0.23 0.39,-0.63 0.07,0.21 -0.53,1.38 -4.67,1.44 -5.45,1.87 -0.02,0.01 -0.09,0.05 -0.11,0.06 -0.46,0.29 -0.39,0.61 -1.69,0.71 0.46,-0.41 -0.01,-0.28 0.31,0.49z"/>
   <path class="fil12" d="M58.78 33.37l-0.6 2.91c0.74,0.84 -0.6,0.59 3.43,-0.36 0.54,-0.13 1.44,-0.16 2.25,-0.33l16.83 -3.12c0.79,-0.17 1.03,-0.31 1.86,-0.38 1.56,-0.12 2.91,-0.28 4.3,-0.61 1.4,-0.34 3.09,-0.2 4.6,-0.28l3.42 -0.5c2.54,-0.69 2.51,-0.1 3.2,-0.74 2.81,-0.39 1.07,-0.17 3.04,-0.73 -1.26,0.01 -2.55,0.04 -3.68,0.27 -1.23,0.26 0.17,0.28 -1.59,0.41l-8.49 0.03c-0.26,-1.3 -0.1,0.05 0.71,-0.47l-4.65 0.3c0.36,-0.41 0.26,-0.46 0.75,-0.68 -1.28,0.25 -2.96,0.56 -4.18,0.61 -0.94,0.03 -1.62,0.09 -2.32,0.23l-1.15 0.35c-1.99,0.7 -3.01,0.22 -5.19,0.51 -0.67,0.09 -1.64,0.57 -3.86,0.75 -0.08,0.52 0.01,-0.58 0.06,0.13 0,0.08 0.05,0.05 -0.06,0.33l-4.55 0.58c-1.44,0.18 -2.28,0.66 -4.13,0.79z"/>
   <path class="fil13" d="M45.36 106.05c0.66,0.33 0.93,0.62 1.63,1.02 1.45,-2.89 5.12,-6.63 8.09,-8.05 1.91,-0.91 3.71,-1.85 5.91,-2.28 3.12,-0.59 9.22,-0.62 12.33,0.91l3.93 2.19c1.16,0.73 3.44,2.92 4.11,3.8l3.18 4.74c0.41,1.03 0.66,1.86 1.1,2.78l1.88 0c-0.19,-1.75 -1.25,-3.5 -1.98,-4.76 -0.31,-0.55 -0.43,-0.6 -0.64,-1.11 -0.28,-0.65 -0.05,-0.46 -0.28,-0.88 -0.35,-0.62 -5.97,-6.97 -8.35,-7.17l1.4 -0.45c-0.95,0.09 -2.85,-0.35 -3.39,0.06l1.92 -0.2c-1.35,-0.67 -5.06,-0.5 -6.93,-0.84 -2.45,-0.44 -4.06,-1.26 -6.15,-1.81 -0.31,0.66 0.16,0.31 -1.23,0.51l-4.47 1.19c-2.02,0.8 -3.21,1.45 -4.88,2.55 -2.37,1.57 -3.32,2.8 -5.03,4.45l-0.26 0.25c-0.75,0.78 -1.44,2.09 -1.89,3.1z"/>
   <path class="fil14" d="M57.94 72.01l0.25 3.18 0.37 -0.85c0.1,-0.35 0.06,-0.46 0.07,-0.81 4.68,-0.03 8.7,-0.68 13.12,0.07 3.36,0.56 9.33,2.38 11.9,3.73l7.02 4.48c1.58,1.23 5.7,5.03 6.94,6.68 -0.62,0.42 -0.44,0.24 -1.33,0.43l4.19 0.1c0.15,-0.15 0.04,-0.41 0.51,-0.65 -1.09,-0.29 -1.89,-2 -2.87,-3.01l-3.59 -3.57c-0.35,-0.3 -0.46,-0.32 -0.88,-0.65 -1.9,-1.46 -2.88,-2.49 -5.19,-3.75l1.43 -0.27c-0.67,0.18 -1.12,0.04 -1.72,-0.2l1.44 -0.17c-0.88,-0.56 -2.79,-0.55 -3.95,-0.89 -1.27,-0.38 -2.4,-0.93 -3.62,-1.26 -0.31,1 0.3,0.23 -0.55,0.16 -0.28,-0.02 -6,-2.59 -13.66,-3.08l-7.77 0.2c-0.56,0.07 -0.54,0.16 -1.28,0.18 0,-1.14 0.18,0.03 -0.68,-0.51l-0.15 0.46z"/>
   <path class="fil15" d="M36.75 19.68c-0.6,0.43 -0.35,-0.08 -0.43,0.78 -0.09,1.03 0.02,0.5 0.22,1.01 -0.01,0.82 1.07,0.21 3.05,-0.36l11.15 -3.2c1.47,-0.4 0.89,-0.76 2.76,-1.21 3.29,-0.79 1.79,0.05 5.71,-1.5 3.38,-1.33 6.8,-2.3 10.16,-3.86 0.69,-0.32 1.19,-0.51 1.89,-0.73 2.26,-0.69 4.72,-1.42 6.6,-2.78 0.79,-0.57 0.24,-0.38 1.52,-0.89l7.17 -4.74c1.1,-0.83 1.53,-1.46 2.45,-2.2l-4.67 0c-0.7,0.25 -2.07,1.7 -3.41,2.72l-2.76 2.08c-0.11,0.07 -0.38,0.23 -0.48,0.3l-0.77 0.6c-0.05,0.03 -0.36,0.17 -0.42,0.2 -2.56,1.37 -4.42,2.74 -7.5,3.94l-9.28 3.82c-1.51,0.61 -3.38,0.96 -4.94,1.51 -1.66,0.58 -3.29,1.26 -5.2,1.64l0.27 0.08c-4.25,1.09 -8.63,3.17 -13.22,3.83l0.13 -1.04z"/>
   <path class="fil16" d="M76.88 14.58l6.46 -0.03 0 -0.04 -2.15 -0.53c2.16,-0.83 0.4,-0.99 3.39,-1.21l0 -0.44c0.44,-0.19 0.84,-0.27 1.35,-0.49l2.91 -1.22c1.5,-0.68 0.29,-0.21 0.34,-0.55 0.28,-0.02 0.46,-0.02 0.74,-0.1l1.53 -0.78c2.33,-1.26 0.27,-0.47 3.18,-1.67 0.53,-0.22 0.22,-0.09 0.52,-0.28l2.6 -1.72c0.53,-0.31 2.5,-0.59 4.26,-2.15 0.72,-0.64 0.59,-0.87 1.63,-1.68 0.76,-0.59 1.38,-0.95 1.76,-1.69l-5.75 0c-2.24,2.7 -11.95,8.16 -16.09,9.96 -0.43,0.19 -1.38,0.57 -1.6,0.96l-1.92 0.39c-0.74,0.23 -0.34,0.37 -1.38,0.89 -0.58,0.29 -0.5,0.2 -1.02,0.53 -2.57,1.61 -2.94,0.06 -4.32,1.91l3.56 -0.06z"/>
   <path class="fil17" d="M80.45 47.4c0.38,0.82 0.02,0.34 0.76,0.69l5.65 1.73c4.3,1.44 15.02,6.61 16.93,9.17 0.47,-0.21 0.23,0.59 0.44,-0.81l0.21 0.58c0.89,-1.21 0.6,-3.82 0.41,-5.45l-0.2 0.41c-0.64,1.97 0.22,-1.51 -0.13,0.46 -0.07,0.37 -0.02,0.74 -0.01,1.12 -1.58,-1.11 -3.12,-2.15 -4.87,-3.15 -3.65,-2.09 -12.37,-6.57 -16.15,-6.89 0.1,-0.6 0.12,-0.41 0.05,-0.7 -0.99,0.17 0.18,-0.18 -0.49,0.18l-1.29 0.99c-0.55,0.51 -0.89,0.97 -1.31,1.67z"/>
   <path class="fil18" d="M46.99 107.07l1.05 0.71c1.83,-0.7 3.31,-5.76 10.53,-8.35 2.71,-0.97 5.19,-1.46 8.13,-1.3 1.73,0.1 6.55,1.16 7.21,1.98 1.01,-0.02 0.18,-0.05 0.46,0.2 0.76,0.67 1.21,0.56 2.4,1.54 2.29,1.89 6.74,6.64 6.85,9.31l2.02 0c-0.44,-0.92 -0.69,-1.75 -1.1,-2.78l-3.18 -4.74c-0.67,-0.88 -2.95,-3.07 -4.11,-3.8l-3.93 -2.19c-3.11,-1.53 -9.21,-1.5 -12.33,-0.91 -2.2,0.43 -4,1.37 -5.91,2.28 -2.97,1.42 -6.64,5.16 -8.09,8.05z"/>
   <path class="fil19" d="M132.06 73.33c0.59,0.77 0.27,0.84 0.45,1.99 0.07,0.38 4.2,8.27 5.23,11.07 0.86,2.36 1.71,4.58 2.43,7.02 0.74,2.51 1.34,4.97 1.95,7.53 0.83,-0.68 1.74,-2.55 2.26,-3.62l-2.48 -7.68c-1.72,-5.18 -5.24,-13.33 -8.26,-17.82 -0.45,-0.68 -0.72,-0.78 -0.87,-1.58 -0.19,-1.03 0.03,-1.69 -0.49,-2.5l-0.22 5.59z"/>
   <path class="fil20" d="M61.21 28.11l-1.18 1.96c0.57,0.35 1.51,-0.12 3.1,-0.44 3.9,-0.78 3.35,-0.49 6.98,-1.67 1.22,-0.4 2.2,-0.59 3.74,-0.59 0.17,-0.57 0.21,0.23 -0.08,-0.27 -0.5,-0.85 -0.32,0.42 -0.18,-0.18 4.07,-0.12 7.8,-0.8 11.71,-1.85 0.27,-0.07 0.19,-0.08 0.59,-0.13l4.77 -0.38c2,-0.3 3.51,-0.88 5.76,-0.85 -0.16,0.03 -0.18,0.03 -0.47,0.16 -1.94,0.95 -0.74,0.36 -1.69,0.38 -1.55,0.02 1.09,-0.26 -0.43,0.02 -0.72,0.13 -0.2,-0.08 -0.65,0.26 0.07,0.04 0.17,0.01 0.21,0.1 0.18,0.38 2.73,0.11 3.1,0.12 0.4,0 0.55,0.05 1.06,0.02 3.48,-1.13 3.89,0 6.16,-1.68 0.03,-0.02 0.08,-0.07 0.11,-0.09 1.1,-0.66 2.98,-0.23 4.33,-0.73 0.04,-0.01 0.12,-0.05 0.17,-0.09l-14.24 -0.25c-0.25,0.11 -3.75,0.29 -4.43,0.43 -1.52,0.29 -2.15,0.9 -3.8,1.03 -1.6,0.12 -3.12,0.28 -4.56,0.63l-3.3 0.55c-1.02,0.25 -0.09,0.04 -0.78,0.26 -1.45,0.47 -2.25,0.28 -3.84,0.76 -5,1.53 -4.39,0.99 -7.89,1.85 -0.18,0.05 -0.73,0.17 -1.02,0.26 -1.37,0.44 -1.07,0.61 -3.25,0.41z"/>
   <path class="fil21" d="M132.34 63.42c3.14,2.36 9.14,15.01 11.16,19.74 0.55,1.28 0.97,2.36 1.42,3.7l1.5 3.87c0.07,-0.82 0.35,-2.42 0.45,-3.15 0.15,-1.2 0.06,-2.48 0.06,-3.7 -0.65,-0.63 -1.17,-2.42 -1.65,-3.57 -3.05,-7.26 -6.65,-13.34 -11.31,-19.58 -1.22,-1.62 -1.28,-1.53 -1.55,-4.02l-0.06 0 -0.02 6.71z"/>
   <path class="fil22" d="M53.66 109.93c0.75,0.38 3.55,0.93 4.6,0.97 0.37,-0.93 0.07,-0.77 0.94,-1.41 2.24,-1.62 7.89,-2.92 10.27,-1.01 0.65,0.52 -0.73,-0.16 0.42,0.23 0.23,0.08 0.51,0.1 0.89,0.25 0.15,0.47 -0.5,0.91 0,0.41 0.74,0.91 1.08,0.05 1.79,1.79l5.03 0c-0.25,-0.92 -0.4,-0.87 -0.94,-1.54 -0.42,-0.5 -0.6,-0.8 -1.04,-1.25 -2.51,-2.59 -5.24,-4.29 -9.43,-4.35 -3.04,-0.04 -5.49,0.58 -7.49,1.71 -2.11,1.17 -2.34,1.68 -3.82,3.07 -0.45,0.42 -0.81,0.83 -1.22,1.13z"/>
   <path class="fil23" d="M98.1 35.58l3.81 1.72c0.26,-0.47 -0.03,-0.25 0.62,-0.45 0.12,-0.04 1.04,-0.07 1.18,-0.05 0.83,0.14 3.95,2.14 4.79,2.65 2,1.22 3.85,2.64 5.75,3.96 4.96,3.44 5.95,5.17 9.22,7.91 0.81,0.68 0.55,0.25 0.89,1.43 0.02,-0.14 0.1,-0.77 0.14,-0.85 0.3,-0.77 -0.2,-0.23 0.44,-0.63l-0.01 -3.02c-1.7,-0.51 -1.67,-1.29 -2.96,-2.33 -1.86,-1.51 -7.15,-6.36 -9.21,-6.64 0.68,-0.9 0,-0.2 0.71,-0.71 -2.94,0.11 -4.54,-1.65 -5.08,-4.13 -0.59,0.6 0.07,-0.45 -0.55,0.68 -2.76,-0.65 -5.08,-0.32 -7.25,-0.03 -1.94,0.26 -1.65,-0.36 -2.49,0.49z"/>
   <path class="fil24" d="M40.89 101.62c0.54,0.46 0.81,0.99 1.36,1.56l1.13 1.13c0.39,0.3 0.22,0.21 0.57,0.3 1.17,-2.32 4.43,-5.79 6.69,-7.48l1.07 -0.74c4.68,-2.85 5.37,-2.37 7.34,-3.38l0.59 -0.39c0.04,-0.04 0.1,-0.1 0.14,-0.13l0.29 -0.27c-1.1,-0.8 -2.1,-1.98 -2.99,-2.6 -0.41,0.28 -0.85,-0.12 -1.23,0.05l-3.27 1.56c-3.83,1.69 -1.72,0.71 -4.44,2.92 -1.4,1.14 -2.49,2.26 -3.83,3.57 -1.3,1.27 -2.52,3.4 -3.42,3.9z"/>
   <path class="fil25" d="M122.66 18.8c0.23,0.3 0.23,0.36 0.66,0.73 0.29,0.26 0.42,0.3 0.72,0.56 0.78,0.68 0.44,0.71 1.42,1.22 0.42,-1.02 0.06,-0.42 2.49,-1.43 3.92,-1.64 4.04,-1.19 6.16,-2.05 2.45,-1 2.22,-0.64 1.62,-1.41 1.85,-0.09 4.73,-1.48 6.27,-2.19 0.36,-0.18 1.81,-0.65 2.12,-0.72 -0.28,-1.16 -1.71,-3.54 -2.55,-4.02 -1.67,0.89 -3.08,1.61 -4.98,2.41 -0.9,0.37 -1.58,0.77 -2.4,1.16 -0.79,0.38 -1.76,0.67 -2.48,1.12 -1.27,0.79 0.18,0.19 -0.79,0.55l-2.34 1.16c-2.66,1.63 -5.26,2.41 -5.92,2.91z"/>
   <path class="fil26" d="M125.46 21.31c0.39,0.9 0.48,0.56 1.17,1.29 0.28,0.31 0.29,0.42 0.57,0.75 0.31,0.37 -0.01,0.22 0.6,0.53 0.77,-0.27 1.57,-0.15 2.56,-0.43l4.39 -1.72c2.42,-0.93 8.97,-3.96 11.16,-4.07 -0.54,-1.33 -0.93,-3.08 -1.79,-4.15 -0.31,0.07 -1.76,0.54 -2.12,0.72 -1.54,0.71 -4.42,2.1 -6.27,2.19 0.6,0.77 0.83,0.41 -1.62,1.41 -2.12,0.86 -2.24,0.41 -6.16,2.05 -2.43,1.01 -2.07,0.41 -2.49,1.43z"/>
   <path class="fil27" d="M58.19 75.19l0.26 1.63 0.58 -1.34c3.25,0.09 7.47,-0.76 11.94,-0.09 3.29,0.49 8.89,2.12 11.72,3.65 0.75,0.4 1.36,0.75 1.98,1.09l3.77 2.36c3.46,2.35 5.3,4.81 6.45,5.58 -0.09,0.8 0.24,0.38 -0.27,0.82l1.66 0.03c0.89,-0.19 0.71,-0.01 1.33,-0.43 -1.24,-1.65 -5.36,-5.45 -6.94,-6.68l-7.02 -4.48c-2.57,-1.35 -8.54,-3.17 -11.9,-3.73 -4.42,-0.75 -8.44,-0.1 -13.12,-0.07 -0.01,0.35 0.03,0.46 -0.07,0.81l-0.37 0.85z"/>
   <path class="fil28" d="M48.04 107.78c0.95,0.3 0.09,0.08 0.88,0.44 0.54,0.24 0.63,0.26 1.17,0.38l2.96 -3.42c2.53,-2.55 7.16,-4.86 10.83,-5.05 7.7,-0.39 9.96,1.5 14.68,6.07l0.86 0.93c0.45,0.61 0.71,1.29 1.23,1.85 0.85,0.93 1,0.39 1.13,2.18l1.84 0c-0.11,-2.67 -4.56,-7.42 -6.85,-9.31 -1.19,-0.98 -1.64,-0.87 -2.4,-1.54 -0.28,-0.25 0.55,-0.22 -0.46,-0.2 -0.66,-0.82 -5.48,-1.88 -7.21,-1.98 -2.94,-0.16 -5.42,0.33 -8.13,1.3 -7.22,2.59 -8.7,7.65 -10.53,8.35z"/>
   <path class="fil29" d="M105.11 14.49c0.33,0.17 8.06,0.85 8.88,0.77 0.76,-0.33 0.05,0.09 0,-0.22 -0.13,-0.83 1.82,-0.96 2.99,-1.56 0.45,-0.24 0.92,-0.56 1.49,-0.82 0.64,-0.3 0.87,-0.29 1.49,-0.55 2.76,-1.17 5.73,-3.14 9,-4.11l4.85 -3.24c0.76,-0.44 0.99,-0.21 1.36,-0.93 -0.51,-0.71 -2.32,-1.56 -3.34,-1.79 -1.45,2.11 -19.13,10.42 -22.36,11.91 -2.17,0.99 -2.23,-0.11 -4.36,0.54z"/>
   <path class="fil30" d="M59.49 80.08l1.04 1.94 0.63 -0.25c0.84,-0.27 -0.66,0.13 0.4,-0.11 4.71,-1.08 14.5,0.79 18.91,3.44l0.6 0.44c1.28,1.01 3.88,2.75 5.59,2.85 -0.45,0.32 -1.23,0.55 -1.7,0.25l3.71 0.25c1.58,0.14 0.68,-0.25 0.93,-0.47 -0.92,-1.36 -7.22,-5.6 -8.66,-6.1 -11.18,-3.85 -8.41,-3.34 -20.98,-3.19 -0.3,1.63 -0.04,0.42 -0.47,0.95z"/>
   <path class="fil31" d="M52.39 1.79l0.93 -0.14c-0.99,1.06 -0.48,2.15 -5.2,5.05 -1.18,0.72 -1.94,1.21 -3.37,1.73 -1.29,0.47 -2.26,1.31 -3.61,1.71l-0.02 -0.43c-0.87,0.39 -0.65,0.26 -1.35,1.45 -0.08,0.14 -0.49,0.78 -0.49,0.79 -0.55,1.08 -0.38,0.28 -0.18,1.08l-0.1 0.42c2.17,-0.58 6.97,-2.74 9.68,-3.68l6.45 -3.27c0.02,-0.02 0.07,-0.07 0.09,-0.08l0.2 -0.18c2.72,-1.98 0.56,0.05 3.53,-3 0.61,-0.63 1.44,-1.72 1.57,-2.81l-1.49 0.08c-1.22,-0.47 -2.21,-0.14 -3.47,0.11 -1.09,0.22 -2.54,0.36 -3.17,1.17z"/>
   <path class="fil32" d="M60.53 82.02c0.5,1.17 1.82,2.56 2.7,2.9 1.59,-0.93 8.04,0.24 9.39,0.57 1.68,0.4 5.67,1.79 7.03,2.76 0.61,0.44 0.06,-0.03 0.52,0.45l-4.36 0.3 13.07 0.2 -0.21 -0.31 -3.71 -0.25c0.47,0.3 1.25,0.07 1.7,-0.25 -1.71,-0.1 -4.31,-1.84 -5.59,-2.85l-0.6 -0.44c-4.41,-2.65 -14.2,-4.52 -18.91,-3.44 -1.06,0.24 0.44,-0.16 -0.4,0.11l-0.63 0.25z"/>
   <path class="fil33" d="M78.16 52.13c1.23,0.52 -0.37,0.15 1.21,0.61 8.56,2.5 14.19,4.65 21.65,10.04 0.75,0.55 0.63,0.24 0.78,1.24 0.88,-0.41 1.79,-1.9 1.86,-2.97 -0.04,-0.01 -0.1,-0.01 -0.11,-0.01l-0.47 -0.13c-0.28,-0.13 -0.26,-0.14 -0.56,-0.36 -12.57,-9.16 -20.06,-9.19 -23.35,-10.98 -0.53,0.32 -0.81,1.71 -1.01,2.56z"/>
   <path class="fil34" d="M58.45 76.82l0.26 0.95c1.28,-0.94 0.18,-0.44 2.08,-0.45 10.03,-0.03 13.55,-0.54 22.99,4.47 1.42,0.75 7.48,5.09 8.04,5.82 1.08,1.41 -1.15,1.16 2.8,1.28 0.51,-0.44 0.18,-0.02 0.27,-0.82 -1.15,-0.77 -2.99,-3.23 -6.45,-5.58l-3.77 -2.36c-0.62,-0.34 -1.23,-0.69 -1.98,-1.09 -2.83,-1.53 -8.43,-3.16 -11.72,-3.65 -4.47,-0.67 -8.69,0.18 -11.94,0.09l-0.58 1.34z"/>
   <path class="fil1" d="M109.68 30.05c-0.4,0.82 -0.04,0.07 -0.44,0.73 -0.04,0.07 -0.17,0.29 -0.29,0.49 -0.21,0.39 -0.36,0.75 -0.53,1.05l-0.03 2.12c0.54,2.48 2.14,4.24 5.08,4.13l1.78 -0.31c0.15,-0.24 0.34,-0.28 0.66,-0.51 0.79,-0.59 0.34,-0.41 1.17,-0.82l0.72 -1.67c0.72,-0.85 0.32,-2.54 -0.07,-3.48l-0.42 -1.11c-0.61,-0.27 -1.08,-1.03 -1.9,-1.43 -1.26,-0.61 -2.08,-0.52 -3.48,-0.38 -0.54,0.33 -0.61,0.24 -1.21,0.6 -0.17,0.11 -0.44,0.3 -0.59,0.39 -0.51,0.29 0.05,0.08 -0.45,0.2z"/>
   <path class="fil35" d="M132.48 54.03c0.54,0.5 0.26,0.88 0.6,1.75 0.08,0.18 0.78,1.25 1,1.54 3.22,4.27 5.11,6.58 7.88,11.56l4.97 9.77 0 -6.48c-2.78,-5 -2.52,-5.15 -6.32,-10.88l-6.56 -8.78c-0.66,-0.79 -0.62,-0.85 -1.37,-0.88 -0.37,0.96 -0.37,1.19 -0.2,2.4z"/>
   <path class="fil36" d="M77.87 53.28c0.42,0.57 0.34,1.46 0.38,2.32 4.82,0.38 16.6,5.98 20.84,9.37 0.64,0.51 0.61,0.39 0.64,1.15 1.01,-0.4 1.81,-1.11 2.07,-2.1 -0.15,-1 -0.03,-0.69 -0.78,-1.24 -7.46,-5.39 -13.09,-7.54 -21.65,-10.04 -1.58,-0.46 0.02,-0.09 -1.21,-0.61l-0.29 1.15z"/>
   <path class="fil37" d="M97.55 24.77c0.41,0.65 -0.01,0.32 0.77,0.72 -0.62,0.05 -1.8,0.27 -2.64,0.4 -1.78,0.29 -4.61,0.02 -6.05,0.64l-2.07 1.14 1.71 0.1c-0.44,0.51 0.2,0.25 -0.51,0.4 1.37,-0.34 0.91,-0.11 2.24,-0.06 1.32,0.06 1.44,-0.27 2.8,-0.23 3.05,0.08 0.19,-0.65 5.05,-0.44 -0.15,-0.36 2.18,-0.65 2.85,-0.69 0.23,-0.95 -0.48,0.56 -0.25,-0.35 1.88,-0.08 3.13,-0.17 4.63,-0.55l7.16 -0.41c2.64,0.28 -1.39,0.67 4.01,0.34 1.21,-0.08 0.96,-0.15 2.23,0.2 -1.94,-2.4 -7.17,-3.5 -11.16,-3.8 -0.05,0.04 -0.13,0.08 -0.17,0.09 -1.35,0.5 -3.23,0.07 -4.33,0.73 -0.03,0.02 -0.08,0.07 -0.11,0.09 -2.27,1.68 -2.68,0.55 -6.16,1.68z"/>
   <path class="fil38" d="M58.71 77.77l0.78 2.31c0.43,-0.53 0.17,0.68 0.47,-0.95 12.57,-0.15 9.8,-0.66 20.98,3.19 1.44,0.5 7.74,4.74 8.66,6.1 -0.25,0.22 0.65,0.61 -0.93,0.47l0.21 0.31c2.75,-0.02 17.27,0.42 18.57,-0.38 -1.38,-0.39 -3.26,-0.09 -4.75,0.07l-2.23 0.13 -4.19 -0.1 -1.66 -0.03c-3.95,-0.12 -1.72,0.13 -2.8,-1.28 -0.56,-0.73 -6.62,-5.07 -8.04,-5.82 -9.44,-5.01 -12.96,-4.5 -22.99,-4.47 -1.9,0.01 -0.8,-0.49 -2.08,0.45z"/>
   <path class="fil39" d="M36.79 18.65c-0.03,0.06 -0.1,0.06 -0.1,0.16 0,0.09 -0.07,0.13 -0.07,0.17 0.01,0.78 -0.07,0.09 0.13,0.7l-0.13 1.04c4.59,-0.66 8.97,-2.74 13.22,-3.83l-0.27 -0.08c1.91,-0.38 3.54,-1.06 5.2,-1.64 1.56,-0.55 3.43,-0.9 4.94,-1.51l9.28 -3.82c3.08,-1.2 4.94,-2.57 7.5,-3.94 0.06,-0.03 0.37,-0.17 0.42,-0.2l0.77 -0.6c0.1,-0.07 0.37,-0.23 0.48,-0.3l2.76 -2.08c1.34,-1.02 2.71,-2.47 3.41,-2.72l-3.58 0c-0.95,0.39 -0.32,0 -1.08,0.69 -0.4,0.36 -0.63,0.65 -1.02,1.04 -1.57,1.57 -2.72,2.5 -4.67,3.7l-4.26 2.41c-4.4,2.63 -3.54,1.31 -7.47,3.28 -3.3,1.65 -22.25,7.91 -25.43,8.54l-0.03 -1.01z"/>
   <path class="fil40" d="M132.17 40.71l0.12 2.99c0.48,0.51 0.23,-0.43 0.66,0.58 0.11,-1.58 0.55,0.01 1.28,0.87 0.68,0.78 1.34,1.23 2,2.08 2.29,2.93 5.04,5.87 7.22,9.13 0.58,0.88 1.04,1.58 1.63,2.46l1.85 2.41 0 -6.16c-1.77,-0.76 1.2,0.5 -0.49,-0.05l-0.36 -0.27c-0.09,-0.11 -0.28,-0.48 -0.37,-0.62l-2.66 -3.49c-0.04,-0.04 -0.08,-0.1 -0.12,-0.14l-6.11 -7.42c-1.32,-1.26 -2.76,-2.21 -3.84,-3.69l-0.13 0.92c-0.63,-1 0.11,-0.78 -0.59,-0.7l-0.09 1.1z"/>
   <path class="fil41" d="M61.21 28.11c2.18,0.2 1.88,0.03 3.25,-0.41 0.29,-0.09 0.84,-0.21 1.02,-0.26 3.5,-0.86 2.89,-0.32 7.89,-1.85 1.59,-0.48 2.39,-0.29 3.84,-0.76 0.69,-0.22 -0.24,-0.01 0.78,-0.26l3.3 -0.55c1.44,-0.35 2.96,-0.51 4.56,-0.63 1.65,-0.13 2.28,-0.74 3.8,-1.03 0.68,-0.14 4.18,-0.32 4.43,-0.43 -6.29,0.01 -12.69,-0.14 -18.95,0.19 -6.9,0.36 -10.94,1.94 -13.92,5.99z"/>
   <path class="fil42" d="M101.36 14.57c1.26,0.02 2.56,0.16 3.75,-0.08 2.13,-0.65 2.19,0.45 4.36,-0.54 3.23,-1.49 20.91,-9.8 22.36,-11.91 -0.57,-0.29 -1.52,-0.58 -2.24,-0.8 -0.69,-0.21 -1.94,-0.4 -2.54,-0.73 0.32,0.84 0.42,0.63 -0.29,1.32l-6.9 4.32c-1.26,1.09 0.32,0.3 -1.68,0.95 -0.92,0.3 -0.64,0.4 -1.66,0.87 -2.82,1.3 1.19,0.01 -4.53,2.37 -0.93,0.39 -0.57,0.42 -1.69,0.87 -3.12,1.24 -5.3,2.67 -8.94,3.36z"/>
   <path class="fil43" d="M132.36 56.71l0.06 0 0.06 -2.68c-0.17,-1.21 -0.17,-1.44 0.2,-2.4 0.75,0.03 0.71,0.09 1.37,0.88l6.56 8.78c3.8,5.73 3.54,5.88 6.32,10.88l0 -6.22c-0.05,-0.06 -0.23,-0.21 -0.28,-0.25 -1.92,-1.6 -0.47,-1 -1.84,-3.01 -0.03,-0.04 -0.08,-0.1 -0.11,-0.15 -0.04,-0.06 -0.17,-0.23 -0.21,-0.29 -0.29,-0.42 -0.61,-0.89 -0.83,-1.22 -0.28,-0.45 -0.49,-0.87 -0.78,-1.27 -0.49,-0.67 -0.51,-0.5 -1.01,-1.03 -0.85,-0.91 -0.51,-1.41 -1.91,-3.21 -0.26,-0.33 -0.2,-0.28 -0.45,-0.57l-3.74 -4.43c-0.32,-0.36 -2.34,-3.38 -2.74,-2.14 -0.09,-1.25 -0.25,-1.16 -0.69,-1.47l0.02 9.8z"/>
   <path class="fil44" d="M57.98 38.49l-0.18 4.23 0.28 -1.43c2.46,-0.73 7.29,-1.43 10.26,-1.92l9.37 -1.47c1.97,0.13 0.9,-0.36 1.12,0.72 3.07,-2.04 4.89,-3 9.26,-3.89 -0.53,-0.71 -2.02,-0.41 -3.08,-0.25 -1.28,0.19 -2.44,0.08 -3.72,0.17 -1.24,0.08 -2.09,0.51 -3.13,0.64 -1.36,0.18 -1.95,0.12 -3.2,0.39 -1.96,0.43 -4.26,0.71 -6.18,1.18 -1.24,0.29 -2.18,0.16 -3.57,0.34 -1.16,0.15 -1.56,0.46 -3.11,0.49 -0.01,0.06 0.9,0.5 -1.25,0.69 -0.91,0.07 -1.94,0.06 -2.87,0.11z"/>
   <path class="fil45" d="M50.09 108.6c0.18,0.16 0.12,0.14 0.44,0.33 0.24,0.15 0.12,0.1 0.5,0.27 0.37,0.17 0.83,0.31 1.17,0.42 0.14,-1.42 0.16,-1.06 0.92,-1.82 0.72,-0.72 1.19,-1.53 2.85,-2.78 4.06,-3.06 10.03,-4.14 15.34,-2.06l1.85 0.96c2.47,1.62 4.06,2.78 5.74,5.53 0.55,0.91 0.66,0.86 1.1,1.71l1.78 0c-0.13,-1.79 -0.28,-1.25 -1.13,-2.18 -0.52,-0.56 -0.78,-1.24 -1.23,-1.85l-0.86 -0.93c-4.72,-4.57 -6.98,-6.46 -14.68,-6.07 -3.67,0.19 -8.3,2.5 -10.83,5.05l-2.96 3.42z"/>
   <path class="fil46" d="M113.99 15.26c0.82,0.6 2.57,0.93 3.72,1.14 -0.75,-1.37 -0.84,-0.03 3.27,-2 0.85,-0.4 0.3,-0.16 0.4,-0.5 0.63,-0.1 0.81,-0.08 1.3,-0.31 0.97,-0.45 -0.15,-0.03 0.62,-0.48 0.65,-0.37 1.66,-0.48 2.4,-0.87 2.97,-1.61 6.63,-3.02 9.25,-4.57l2.96 -2.05c-0.75,-0.62 -1.66,-1.54 -2.74,-1.79 -0.37,0.72 -0.6,0.49 -1.36,0.93l-4.85 3.24c-3.27,0.97 -6.24,2.94 -9,4.11 -0.62,0.26 -0.85,0.25 -1.49,0.55 -0.57,0.26 -1.04,0.58 -1.49,0.82 -1.17,0.6 -3.12,0.73 -2.99,1.56 0.05,0.31 0.76,-0.11 0,0.22z"/>
   <path class="fil47" d="M52.2 109.62l1.46 0.31c0.41,-0.3 0.77,-0.71 1.22,-1.13 1.48,-1.39 1.71,-1.9 3.82,-3.07 2,-1.13 4.45,-1.75 7.49,-1.71 4.19,0.06 6.92,1.76 9.43,4.35 0.44,0.45 0.62,0.75 1.04,1.25 0.54,0.67 0.69,0.62 0.94,1.54l2.4 0c-0.44,-0.85 -0.55,-0.8 -1.1,-1.71 -1.68,-2.75 -3.27,-3.91 -5.74,-5.53l-1.85 -0.96c-5.31,-2.08 -11.28,-1 -15.34,2.06 -1.66,1.25 -2.13,2.06 -2.85,2.78 -0.76,0.76 -0.78,0.4 -0.92,1.82z"/>
   <path class="fil48" d="M129.25 84.55c0.88,0.29 0.5,-0.06 1,0.94 0.14,0.3 0.33,0.81 0.52,1.26 2.33,5.62 5.18,13.74 5.81,19.81 0.48,-0.36 0.72,-0.52 1.24,-0.94 0.05,-0.03 0.58,-0.44 0.59,-0.44 0.45,-0.45 0.33,-0.23 0.4,-0.67l-1.46 -6.6c-0.8,-3.26 -4.6,-13.99 -6.25,-16.56 -0.88,-1.37 0.87,0.51 -0.31,-0.37l-1.54 3.57z"/>
   <path class="fil49" d="M132.28 67.74c0.52,0.81 0.3,1.47 0.49,2.5 0.15,0.8 0.42,0.9 0.87,1.58 3.02,4.49 6.54,12.64 8.26,17.82l2.48 7.68c0.33,-0.58 0.94,-1.94 1.06,-2.77 -0.37,-3.34 -4.08,-12.03 -5.61,-15.35 -1.83,-3.95 -4.19,-8.26 -6.59,-11.82l-0.92 -1.62 -0.04 1.98z"/>
   <path class="fil50" d="M132.42 56.71c0.27,2.49 0.33,2.4 1.55,4.02 4.66,6.24 8.26,12.32 11.31,19.58 0.48,1.15 1,2.94 1.65,3.57l0 -5.23 -4.97 -9.77c-2.77,-4.98 -4.66,-7.29 -7.88,-11.56 -0.22,-0.29 -0.92,-1.36 -1,-1.54 -0.34,-0.87 -0.06,-1.25 -0.6,-1.75l-0.06 2.68z"/>
   <path class="fil49" d="M111.1 48.04c1.53,-0.35 0.45,-0.87 3.81,1.84 1.13,0.91 2.2,1.95 3.31,2.82 1.73,1.34 4.85,4.59 6.17,6.38 -0.55,-1.74 0,-0.65 0.23,-0.57l0.24 2.72 -0.04 3.46 -0.21 6.49c0.75,-1.3 0.35,-21.21 0.33,-24.45l-0.17 0 0.16 1.52 0.01 3.02 -0.27 5.2c-0.56,-2.03 -0.14,-1.18 -1.52,-2.53 -3.4,-3.32 -12.49,-11.67 -16.12,-12.55 0.27,0.56 0.73,0.95 1.13,1.47 0.53,0.68 0.67,0.95 1.12,1.69 0.35,0.56 1.62,3.28 1.82,3.49z"/>
   <path class="fil51" d="M132.29 43.7l0.05 3.21c0.44,0.31 0.6,0.22 0.69,1.47 0.4,-1.24 2.42,1.78 2.74,2.14l3.74 4.43c0.25,0.29 0.19,0.24 0.45,0.57 1.4,1.8 1.06,2.3 1.91,3.21 0.5,0.53 0.52,0.36 1.01,1.03 0.29,0.4 0.5,0.82 0.78,1.27 0.22,0.33 0.54,0.8 0.83,1.22 0.04,0.06 0.17,0.23 0.21,0.29 0.03,0.05 0.08,0.11 0.11,0.15 1.37,2.01 -0.08,1.41 1.84,3.01 0.05,0.04 0.23,0.19 0.28,0.25l0 -4.72 -1.85 -2.41c-0.59,-0.88 -1.05,-1.58 -1.63,-2.46 -2.18,-3.26 -4.93,-6.2 -7.22,-9.13 -0.66,-0.85 -1.32,-1.3 -2,-2.08 -0.73,-0.86 -1.17,-2.45 -1.28,-0.87 -0.43,-1.01 -0.18,-0.07 -0.66,-0.58z"/>
   <path class="fil52" d="M98.85 27.44c-4.86,-0.21 -2,0.52 -5.05,0.44 -1.36,-0.04 -1.48,0.29 -2.8,0.23 -1.33,-0.05 -0.87,-0.28 -2.24,0.06 -1.96,0.15 -3.19,0.18 -4.6,0.92 -0.49,0.22 -0.39,0.27 -0.75,0.68l4.65 -0.3c-0.81,0.52 -0.97,-0.83 -0.71,0.47l8.49 -0.03c1.76,-0.13 0.36,-0.15 1.59,-0.41 1.13,-0.23 2.42,-0.26 3.68,-0.27 -1.97,0.56 -0.23,0.34 -3.04,0.73 2.04,-0.03 4.1,-0.1 6.11,0.03 0.45,0.03 2.29,-0.02 2.33,-0.02 0.33,0 2.2,-0.13 3.17,0.08 0.5,-0.12 -0.06,0.09 0.45,-0.2 0.15,-0.09 0.42,-0.28 0.59,-0.39 0.6,-0.36 0.67,-0.27 1.21,-0.6 0.45,-0.36 0.07,-0.17 0.75,-0.4 0.61,-0.2 -0.05,-0.02 0.51,-0.11 0.08,-0.01 0.84,0.02 0.99,0.02 -0.18,0.01 -0.7,0.08 -0.98,0.04l-0.91 -0.3c-0.05,-0.1 -0.15,-0.07 -0.21,-0.12l-0.59 0.04c0.01,0 1.05,-0.11 0.23,-0.67 -1.36,-0.94 -2.77,-0.14 -2.77,-0.13 -0.9,0.25 -1.89,-0.16 -2.8,-0.05 -1.95,0.25 -0.45,0.57 -3.41,0.29 -1.1,-0.1 -3.44,0.38 -3.89,-0.03z"/>
   <path class="fil53" d="M79.17 49.57c3.29,1.79 10.78,1.82 23.35,10.98 0.3,0.22 0.28,0.23 0.56,0.36l0.47 0.13c0.01,0 0.07,0 0.11,0.01 0.65,-0.61 0.82,-1.31 0.78,-2.29l-0.21 -0.58c-0.21,1.4 0.03,0.6 -0.44,0.81 -1.91,-2.56 -12.63,-7.73 -16.93,-9.17l-5.65 -1.73c-0.74,-0.35 -0.38,0.13 -0.76,-0.69l-1.28 2.17z"/>
   <path class="fil54" d="M35.77 34.04l0 3.8c3.03,-0.64 7.32,-2.15 11.2,-2.63l2.64 -0.68c0.88,-0.37 0.29,0.36 0.76,-0.51l0.54 0.68 1.04 -4.46c-2.08,0.09 -14.43,3.84 -16.18,3.8z"/>
   <path class="fil55" d="M83.54 44.56c0.07,0.29 0.05,0.1 -0.05,0.7 3.78,0.32 12.5,4.8 16.15,6.89 1.75,1 3.29,2.04 4.87,3.15 -0.01,-0.38 -0.06,-0.75 0.01,-1.12 0.35,-1.97 -0.51,1.51 0.13,-0.46l0.2 -0.41 -0.53 -1.96c-0.32,0.27 -0.13,-0.27 -0.56,0.51 -0.83,-1.05 -6.88,-4.25 -8.55,-5 -1.67,-0.76 -2.92,-1.32 -4.64,-1.99 -1.87,-0.74 -3.78,-1.03 -4.15,-1.84 -1.32,0.02 -2.44,1.07 -2.46,1.09 -0.26,0.24 -0.21,0.19 -0.42,0.44z"/>
   <path class="fil56" d="M35.77 29.19l0 2.68c1.77,0.08 3,-0.22 4.59,-0.36 1.11,-0.1 5.69,-1.67 7.65,-2.01l4.38 -0.88 2.06 -3.83c-3.54,0.05 -17.44,4.77 -18.68,4.4z"/>
   <path class="fil57" d="M101.91 37.3c1.01,0.68 2.12,1.39 2.74,1.93 0.95,0.82 1.53,1.55 2.38,2.16 3.63,0.88 12.72,9.23 16.12,12.55 1.38,1.35 0.96,0.5 1.52,2.53l0.27 -5.2c-0.64,0.4 -0.14,-0.14 -0.44,0.63 -0.04,0.08 -0.12,0.71 -0.14,0.85 -0.34,-1.18 -0.08,-0.75 -0.89,-1.43 -3.27,-2.74 -4.26,-4.47 -9.22,-7.91 -1.9,-1.32 -3.75,-2.74 -5.75,-3.96 -0.84,-0.51 -3.96,-2.51 -4.79,-2.65 -0.14,-0.02 -1.06,0.01 -1.18,0.05 -0.65,0.2 -0.36,-0.02 -0.62,0.45z"/>
   <path class="fil58" d="M131.4 78.7c0.68,-0.8 0.14,-0.61 1.55,2.2 0.52,1.06 0.93,1.82 1.45,2.89 3.22,6.65 4.28,12.53 6.04,19.19 0.9,-0.51 0.28,-0.09 0.97,-0.93 0.52,-0.62 0.43,-0.3 0.71,-1.11 -0.61,-2.56 -1.21,-5.02 -1.95,-7.53 -0.72,-2.44 -1.57,-4.66 -2.43,-7.02 -1.03,-2.8 -5.16,-10.69 -5.23,-11.07 -0.18,-1.15 0.14,-1.22 -0.45,-1.99l-0.66 5.37z"/>
   <path class="fil59" d="M119.54 17.24c0.47,0.25 0.96,0.49 1.47,0.77 0.21,0.12 0.56,0.35 0.8,0.48 0.58,0.3 0.31,0.25 0.85,0.31 0.66,-0.5 3.26,-1.28 5.92,-2.91l2.34 -1.16c0.97,-0.36 -0.48,0.24 0.79,-0.55 0.72,-0.45 1.69,-0.74 2.48,-1.12 0.82,-0.39 1.5,-0.79 2.4,-1.16 1.9,-0.8 3.31,-1.52 4.98,-2.41 -0.25,-1.01 -0.87,-1.22 -1.54,-2.05 -1.84,0.71 -3.39,1.75 -5.22,2.58l-3.75 1.94c-0.44,0.31 -0.55,0.46 -1.04,0.65 -0.71,0.27 -0.96,0.14 -1.65,0.46 -1.39,0.63 0.69,0.02 -2.08,0.94l-1.81 0.76c-0.07,0.03 -0.13,0.06 -0.2,0.08 -0.07,0.04 -0.28,0.14 -0.35,0.17 -1.21,0.6 -3.16,1.25 -4.06,1.91 -0.05,0.04 -0.14,0.2 -0.17,0.15 -0.03,-0.05 -0.11,0.1 -0.16,0.16z"/>
   <path class="fil60" d="M39.1 13.03c-0.64,0.27 -0.51,-0.42 -0.51,0.51 -0.38,0.32 -0.13,-0.05 -0.16,0.51 -0.48,1.43 -0.18,0.29 0.16,0.72 4.21,-0.76 7.96,-2.95 10.98,-3.75l0 -0.34c3.42,-0.51 12.75,-5.7 14.91,-9.08l0.77 -1.03c-0.06,-0.05 -0.16,-0.18 -0.2,-0.12 -0.03,0.06 -0.22,-0.14 -0.36,-0.22 -0.34,-0.18 -0.19,-0.06 -0.46,-0.23l-0.46 0c-0.61,0 -1.21,0.01 -1.82,0l-0.08 0 -2.11 0c-1.06,0.06 -0.32,-0.11 -0.73,0.51l1.49 -0.08c-0.13,1.09 -0.96,2.18 -1.57,2.81 -2.97,3.05 -0.81,1.02 -3.53,3l-0.2 0.18c-0.02,0.01 -0.07,0.06 -0.09,0.08l-6.45 3.27c-2.71,0.94 -7.51,3.1 -9.68,3.68l0.1 -0.42z"/>
   <path class="fil61" d="M132.32 65.76l0.92 1.62c2.4,3.56 4.76,7.87 6.59,11.82 1.53,3.32 5.24,12.01 5.61,15.35 0.45,-0.85 0.88,-2.66 0.98,-3.82l-1.5 -3.87c-0.45,-1.34 -0.87,-2.42 -1.42,-3.7 -2.02,-4.73 -8.02,-17.38 -11.16,-19.74l-0.02 2.34z"/>
   <path class="fil36" d="M105.78 71.06c2.66,0.72 9.17,10.34 10.9,13.14 1.05,1.69 0.6,1.86 0.72,2.47 1.21,-0.77 1.99,-1.03 2.52,-2.18 -1.09,-3.1 -9.75,-14.42 -12.03,-15.57 -0.73,0.25 -1.73,1.56 -2.11,2.14z"/>
   <path class="fil62" d="M107.98 111.16l3.47 0c-0.06,-2.37 -1.23,-5.53 -1.54,-7.43l-2.56 -6.37c0.16,-0.11 0.37,-0.39 0.5,-0.52l-4.1 -0.29 -0.72 0c1.16,1.57 2.05,4.76 3.02,6.72 0.62,1.26 0.21,0.85 0.53,2.08l1.03 3.83c0.13,0.74 0.18,1.45 0.37,1.98z"/>
   <path class="fil63" d="M109.86 96.25l1.41 0.6c0.2,1.13 0.83,2.31 1.2,3.31 0.45,1.23 0.74,2.18 1.11,3.5 0.53,1.88 1.49,5.06 1.47,7.5l3.49 0c-0.08,-2.06 -1.1,-6.1 -1.65,-8.04 -0.39,-1.34 -0.77,-2.42 -1.2,-3.67 -0.47,-1.38 -0.9,-2.09 -1.11,-3.92l-4.72 0.72z"/>
   <path class="fil53" d="M109.07 67.21c1.11,0.25 6.11,6.44 6.78,7.33 1.24,1.65 4.93,6.55 5.42,8.51 0.34,-0.25 0.15,-0.01 0.6,-0.53 0.25,-0.3 0.33,-0.45 0.51,-0.78 0.32,-0.57 0.56,-1.11 0.86,-1.75 -1.12,0.12 -0.18,0.6 -1.65,-1.77l-2.97 -4.42c-1.55,-1.87 -6.55,-8.38 -8.27,-8.9l-1.28 2.31z"/>
   <path class="fil33" d="M123.66 91.59l1.36 3.94c2.57,7.65 2.06,7.35 3.52,14.61 0.84,-0.2 1.81,-0.38 2.46,-0.77 -0.04,-1.85 -0.55,-3.72 -0.89,-5.47 -1.09,-5.51 -4.4,-14.15 -4.43,-14.32 -0.76,0.43 -0.47,0.28 -1.11,0.99 -0.2,0.22 -0.27,0.29 -0.51,0.55 -0.28,0.31 -0.15,0.11 -0.4,0.47z"/>
   <path class="fil36" d="M121.44 93.01c0,1.51 2.05,6.49 2.54,8.47 0.71,2.85 1.58,6.07 1.82,9.17 0.88,-0.02 1.97,-0.34 2.74,-0.51 -1.46,-7.26 -0.95,-6.96 -3.52,-14.61l-1.36 -3.94c-0.54,0.11 -0.1,-0.04 -0.63,0.26 -0.06,0.04 -0.45,0.31 -0.6,0.42 -0.36,0.26 -0.64,0.41 -0.99,0.74z"/>
   <path class="fil64" d="M91.23 111.16l3.87 0 -3.13 -7.39c-0.03,-0.04 -0.08,-0.1 -0.11,-0.14 -0.98,-1.3 -0.85,-1.79 -1.84,-2.78 -1.1,-1.11 -2.45,-3.34 -2.77,-3.6 -0.59,-0.49 -1.32,-0.4 -2.16,-0.4l0 0.21 -2.4 0.04c0.46,-0.31 0.93,-0.09 1.76,-0.02l-0.89 0.54c0.6,0.4 2.07,2.13 2.59,2.8l1.6 2.22c0.83,0.98 2.02,3.23 2.34,4.44 0.24,0.91 0.16,1.42 0.35,2.22 0.32,1.41 0.5,0.2 0.79,1.86z"/>
   <path class="fil65" d="M130.79 80.98c1.18,0.88 -0.57,-1 0.31,0.37 1.65,2.57 5.45,13.3 6.25,16.56l1.46 6.6c0.75,-0.33 0.42,-0.06 1.07,-0.69 0.49,-0.48 0.38,-0.4 0.56,-0.84 -1.76,-6.66 -2.82,-12.54 -6.04,-19.19 -0.52,-1.07 -0.93,-1.83 -1.45,-2.89 -1.41,-2.81 -0.87,-3 -1.55,-2.2l-0.61 2.28z"/>
   <path class="fil36" d="M35.77 58.77l0 3.57c2.54,-1.14 5.42,-3.01 8.44,-4.08l5.79 -1.98c-0.1,-1.26 -0.07,-0.67 0.24,-1.02l0.04 -4.25 -0.26 0 -0.42 2.14 -7.16 2.56c-2.17,0.84 -5.05,2.62 -6.67,3.06z"/>
   <path class="fil66" d="M78.4 60.04c0.96,2.52 1.45,2.89 1.49,2.93 0.24,0.26 0.2,0.22 0.45,0.42 0.58,-0.47 -0.06,-0.51 1.54,0.06 5.78,2.08 5.42,2.27 10.1,4.75l1.88 0.84 2.56 -0.78 -0.25 -0.35c-0.04,-0.06 -0.19,-0.26 -0.24,-0.32 -0.07,-0.09 -0.31,-0.37 -0.35,-0.41l-9.81 -5.25c-0.89,-0.35 -1.44,-0.62 -2.38,-0.94 -0.98,-0.34 -1.83,-0.61 -2.68,-0.9 -0.4,-0.13 -0.89,-0.35 -1.33,-0.37 -0.71,-0.03 0.12,-0.15 -0.98,0.32z"/>
   <path class="fil67" d="M111.78 49.71l0.73 4.15 0.39 0.24c0.22,-0.85 -0.21,-0.69 1.32,0.58l9.47 9.71c0.57,0.78 0.7,0.99 0.67,2.37 0.01,-0.27 0.02,-0.85 0.07,-1.09 0.15,-0.78 -0.11,0.19 0.1,-0.43 0.25,-0.73 -0.12,-0.09 0.29,-0.55l0.04 -3.46c-1.38,-0.6 -5.37,-5.12 -6.8,-6.54 -1.11,-1.1 -2.36,-2.08 -3.58,-3.07 -2.26,-1.84 -2.31,-2.69 -2.7,-1.91z"/>
   <path class="fil33" d="M35.77 54.21l0 4.56c1.62,-0.44 4.5,-2.22 6.67,-3.06l7.16 -2.56 0.42 -2.14 -0.45 -0.59c-1.04,0.45 -2.4,0.51 -3.69,0.89 -1.46,0.43 0.08,0.43 -2.9,1.08l-5.48 1.45c-0.59,0.16 -1.2,0.25 -1.73,0.37z"/>
   <path class="fil68" d="M77.87 57.75l0.53 2.29c1.1,-0.47 0.27,-0.35 0.98,-0.32 0.44,0.02 0.93,0.24 1.33,0.37 0.85,0.29 1.7,0.56 2.68,0.9 0.94,0.32 1.49,0.59 2.38,0.94l9.81 5.25c0.04,0.04 0.28,0.32 0.35,0.41 0.05,0.06 0.2,0.26 0.24,0.32l0.25 0.35 2.06 -1.03c-1.3,-2.68 -12.53,-7.59 -14.8,-8.34l-4.3 -1.34c-1.66,-0.19 -0.19,0.14 -1.51,0.2z"/>
   <path class="fil69" d="M128.04 86.88c1.19,0.34 0.91,0.65 2.21,3.92 0.71,1.8 1.28,3.59 1.8,5.34 0.78,2.58 2.52,8.89 2.62,11.44 0.89,-0.21 1.16,-0.54 1.91,-1.02 -0.63,-6.07 -3.48,-14.19 -5.81,-19.81 -0.19,-0.45 -0.38,-0.96 -0.52,-1.26 -0.5,-1 -0.12,-0.65 -1,-0.94l-1.21 2.33z"/>
   <path class="fil59" d="M117.71 16.4l1.83 0.84c0.05,-0.06 0.13,-0.21 0.16,-0.16 0.03,0.05 0.12,-0.11 0.17,-0.15 0.9,-0.66 2.85,-1.31 4.06,-1.91 0.07,-0.03 0.28,-0.13 0.35,-0.17 0.07,-0.02 0.13,-0.05 0.2,-0.08l1.81 -0.76c2.77,-0.92 0.69,-0.31 2.08,-0.94 0.69,-0.32 0.94,-0.19 1.65,-0.46 0.49,-0.19 0.6,-0.34 1.04,-0.65l3.75 -1.94c1.83,-0.83 3.38,-1.87 5.22,-2.58l-2.12 -1.82 -2.96 2.05c-2.62,1.55 -6.28,2.96 -9.25,4.57 -0.74,0.39 -1.75,0.5 -2.4,0.87 -0.77,0.45 0.35,0.03 -0.62,0.48 -0.49,0.23 -0.67,0.21 -1.3,0.31 -0.1,0.34 0.45,0.1 -0.4,0.5 -4.11,1.97 -4.02,0.63 -3.27,2z"/>
   <path class="fil70" d="M35.77 62.34l0 3.16c1.79,-0.22 9.61,-5.38 13.8,-5.72 0.26,-1.32 0.66,-1.84 0.43,-3.5l-5.79 1.98c-3.02,1.07 -5.9,2.94 -8.44,4.08z"/>
   <path class="fil53" d="M57.71 48.47l-0.01 2.01c2.63,0.07 4.58,-0.27 6.95,-0.26l5.68 0.02c0.25,0.02 -0.21,-0.81 0.35,0.26l1.7 -4.26c-1.57,-0.9 -13.7,1.84 -14.67,2.23z"/>
   <path class="fil71" d="M114.58 95.53c0.21,1.83 0.64,2.54 1.11,3.92 0.43,1.25 0.81,2.33 1.2,3.67 0.55,1.94 1.57,5.98 1.65,8.04l2.79 0c-0.11,-1.38 -0.54,-3.34 -0.82,-4.78 -0.37,-1.83 -2.51,-10.57 -3.66,-11.22l-2.27 0.37z"/>
   <path class="fil14" d="M35.77 81.99l0 3.29c0.42,-0.12 4.53,-3.62 6.55,-4.92 0.28,-0.18 0.47,-0.29 0.78,-0.49 0.04,-0.03 0.44,-0.3 0.46,-0.31l6.53 -3.3c0.64,0.33 0.19,-0.56 0.65,1.2l0.05 -0.55 -0.15 -3.13c-2.75,-0.11 -10.02,4.48 -12.53,6.49l-2.34 1.72z"/>
   <path class="fil72" d="M102.38 111.16l3 0c0,-1.35 -0.52,-3.03 -0.88,-4.28 -1.31,-4.6 -0.1,-1.14 -1.44,-3.68 -0.76,-1.43 -1.44,-7.18 -4.03,-6.21l-2.09 0.13c-0.05,0.79 -0.03,0.05 0.7,0.97 1.01,1.29 3.71,7.64 3.92,8.72 0.23,1.1 0.14,1 0.46,2.08 0.27,0.91 0.36,1.21 0.36,2.27z"/>
   <path class="fil73" d="M126.8 88.58c0.82,0.38 0.83,1.04 1.18,1.89 1.66,4.12 4.7,14.04 4.8,18.13 0.93,-0.18 1.42,-0.38 1.89,-1.02 -0.1,-2.55 -1.84,-8.86 -2.62,-11.44 -0.52,-1.75 -1.09,-3.54 -1.8,-5.34 -1.3,-3.27 -1.02,-3.58 -2.21,-3.92 -0.64,0.35 -0.99,1 -1.24,1.7z"/>
   <path class="fil74" d="M118.91 94.41c0.92,1.31 2.08,5.64 2.62,7.46 0.52,1.79 1.75,6.91 1.75,9.03 1.34,0 1.49,-0.04 2.52,-0.25 -0.24,-3.1 -1.11,-6.32 -1.82,-9.17 -0.49,-1.98 -2.54,-6.96 -2.54,-8.47 -0.8,0.25 -1.99,0.73 -2.53,1.4z"/>
   <path class="fil74" d="M77.87 57.75c1.32,-0.06 -0.15,-0.39 1.51,-0.2l4.3 1.34c2.27,0.75 13.5,5.66 14.8,8.34 0.65,-0.34 0.99,-0.47 1.25,-1.11 -0.03,-0.76 0,-0.64 -0.64,-1.15 -4.24,-3.39 -16.02,-8.99 -20.84,-9.37 -0.04,-0.86 0.04,-1.75 -0.38,-2.32l0 4.47z"/>
   <path class="fil75" d="M58.1 67.75l-0.01 2.52c1.46,0.08 3.02,-0.42 4.77,-0.42 8.4,-0.01 5.66,-0.07 12.91,1.21 0.99,0.18 0.35,0.2 0.74,-0.25 -0.23,-0.57 -0.1,-0.27 -0.56,-0.84 -0.26,-0.34 -0.42,-0.53 -0.69,-0.85 -0.55,-0.66 -0.86,-1.23 -1.53,-1.61l-0.23 0.62c-2.01,-1.37 -13.51,-0.2 -15.4,-0.38z"/>
   <path class="fil76" d="M43.95 104.61l1.41 1.44c0.45,-1.01 1.14,-2.32 1.89,-3.1l0.26 -0.25c1.71,-1.65 2.66,-2.88 5.03,-4.45 1.67,-1.1 2.86,-1.75 4.88,-2.55l4.47 -1.19c1.39,-0.2 0.92,0.15 1.23,-0.51 -0.09,-0.12 -2.75,-1.65 -3.05,-1.78l-0.29 0.27c-0.04,0.03 -0.1,0.09 -0.14,0.13l-0.59 0.39c-1.97,1.01 -2.66,0.53 -7.34,3.38l-1.07 0.74c-2.26,1.69 -5.52,5.16 -6.69,7.48z"/>
   <path class="fil77" d="M35.77 26.49l0 2.7c1.24,0.37 15.14,-4.35 18.68,-4.4l1.52 -2.07c0.42,-0.56 -0.04,0.18 0.36,-0.49 -1.73,-0.23 -1.77,-0.01 -2.97,0.41 -0.8,0.28 -1.76,0.28 -2.58,0.5 -3.12,0.82 -11.67,3.68 -14.49,3.87 -0.05,-0.07 -0.19,-0.21 -0.21,-0.24l-0.31 -0.28z"/>
   <path class="fil73" d="M110.35 64.9c1.72,0.52 6.72,7.03 8.27,8.9l2.97 4.42c1.47,2.37 0.53,1.89 1.65,1.77 0.35,-0.89 0.66,-1.6 0.62,-2.59 -0.49,-1.12 0.02,0.15 -0.43,0.03 -0.84,-2.39 -8.82,-12.07 -11.22,-14.08 -0.75,-0.63 0.16,-0.3 -1.11,-0.53l-0.75 2.08z"/>
   <path class="fil78" d="M35.77 72.97l0 2.72c0.87,-0.14 1.12,-0.43 1.72,-0.9l12.54 -6.6 0 1.75c0.01,0.69 0.09,1.01 0.14,1.64 0.03,0.27 0.06,0.37 0.04,0.64 -0.08,1.15 0.34,-0.15 -0.12,0.44l0.2 -1.43c0.36,-1.16 0.12,-2.76 0.08,-4.06l-0.66 -0.64c-0.25,-0.3 -0.17,-0.18 -0.3,-0.51 -0.06,0.03 -0.14,0.07 -0.18,0.09 -0.04,0.02 -0.13,0.07 -0.18,0.09l-0.92 0.37c-1.4,0.53 -6.28,2.38 -6.49,3.19 0,0.01 0,0.07 0,0.08l0.01 0.17c-1.43,0.13 -2.09,0.81 -3.01,1.36 -0.94,0.56 -1.76,1.27 -2.87,1.6z"/>
   <path class="fil24" d="M77.67 96.79c2.31,-0.23 2.09,0.74 4.25,2.42 1.67,1.32 1.52,0.84 3.26,3.19l4.42 8.76 1.63 0c-0.29,-1.66 -0.47,-0.45 -0.79,-1.86 -0.19,-0.8 -0.11,-1.31 -0.35,-2.22 -0.32,-1.21 -1.51,-3.46 -2.34,-4.44l-1.6 -2.22c-0.52,-0.67 -1.99,-2.4 -2.59,-2.8l0.89 -0.54c-0.83,-0.07 -1.3,-0.29 -1.76,0.02l2.4 -0.04 4.64 -0.24 3.38 -0.03 0.77 -0.18 -17.68 0.04 -1.92 0.2c0.54,-0.41 2.44,0.03 3.39,-0.06z"/>
   <path class="fil79" d="M57.8 42.72l-0.04 1.49c0.3,-1.18 0.44,-0.79 3.45,-1.48 0.67,-0.15 1.62,-0.45 2.46,-0.58 1.12,-0.17 1.59,-0.26 2.62,-0.46 2.28,-0.43 1.52,0.13 5.17,-0.92 1.1,-0.32 1.7,-0.1 2.81,-0.3 1.96,-0.36 1.81,-0.85 2.14,0.11 0.74,-0.56 1.53,-1.36 2.42,-1.96 -0.22,-1.08 0.85,-0.59 -1.12,-0.72l-9.37 1.47c-2.97,0.49 -7.8,1.19 -10.26,1.92l-0.28 1.43z"/>
   <path class="fil75" d="M35.77 79.15l0 2.84 2.34 -1.72c2.51,-2.01 9.78,-6.6 12.53,-6.49 -0.04,-0.41 -0.04,-0.83 -0.07,-1.22 -0.09,-0.91 0.05,-0.66 -0.28,-1.33l-0.2 1.43c0.46,-0.59 0.04,0.71 0.12,-0.44 0.02,-0.27 -0.01,-0.37 -0.04,-0.64 -0.05,-0.63 -0.13,-0.95 -0.14,-1.64 -0.57,1.07 -0.27,1.14 -1.46,1.6 -0.63,0.24 -1.28,0.45 -2.02,0.8 -4.1,1.9 -7.29,4.06 -10.78,6.81z"/>
   <path class="fil80" d="M63.23 84.92c0.57,1.41 3.37,2.5 5.18,3.05 2.44,0.74 4.79,0.94 7.4,1.03l4.36 -0.3c-0.46,-0.48 0.09,-0.01 -0.52,-0.45 -1.36,-0.97 -5.35,-2.36 -7.03,-2.76 -1.35,-0.33 -7.8,-1.5 -9.39,-0.57z"/>
   <path class="fil81" d="M107.89 68.92c2.28,1.15 10.94,12.47 12.03,15.57 0.36,-0.21 0.51,-0.25 0.84,-0.54 0.83,-0.75 0.41,-0.15 0.51,-0.9 -0.49,-1.96 -4.18,-6.86 -5.42,-8.51 -0.67,-0.89 -5.67,-7.08 -6.78,-7.33 -0.49,0.15 0.31,-0.42 -0.3,0.22 -0.03,0.04 -0.3,0.36 -0.3,0.37 -0.49,0.71 -0.32,0.35 -0.58,1.12z"/>
   <path class="fil62" d="M58.09 70.27l0 1.28c0.86,0.54 0.68,-0.63 0.68,0.51 0.74,-0.02 0.72,-0.11 1.28,-0.18l7.77 -0.2c7.66,0.49 13.38,3.06 13.66,3.08 0.85,0.07 0.24,0.84 0.55,-0.16 -0.15,-0.19 -2.22,-1.4 -2.64,-1.69 -1.15,-0.81 -1.8,-1.6 -2.88,-2.1 -0.39,0.45 0.25,0.43 -0.74,0.25 -7.25,-1.28 -4.51,-1.22 -12.91,-1.21 -1.75,0 -3.31,0.5 -4.77,0.42z"/>
   <path class="fil82" d="M57.76 44.21l-0.02 1.51c1.59,-1.02 1.65,-0.59 2.74,-0.82 1.54,-0.31 0.44,-0.44 4.93,-0.76 3.25,-0.23 4.95,-1.27 8.8,-1 0.04,-0.03 0.1,-0.14 0.11,-0.1l2.09 -2.46c-0.33,-0.96 -0.18,-0.47 -2.14,-0.11 -1.11,0.2 -1.71,-0.02 -2.81,0.3 -3.65,1.05 -2.89,0.49 -5.17,0.92 -1.03,0.2 -1.5,0.29 -2.62,0.46 -0.84,0.13 -1.79,0.43 -2.46,0.58 -3.01,0.69 -3.15,0.3 -3.45,1.48z"/>
   <path class="fil53" d="M125.68 89.58c0.03,0.17 3.34,8.81 4.43,14.32 0.34,1.75 0.85,3.62 0.89,5.47 0.72,-0.15 0.39,-0.04 1.05,-0.32 0.07,-0.03 0.27,-0.13 0.33,-0.17 0.42,-0.23 0.22,-0.11 0.4,-0.28 -0.1,-4.09 -3.14,-14.01 -4.8,-18.13 -0.35,-0.85 -0.36,-1.51 -1.18,-1.89 -0.66,0.35 -0.79,0.31 -1.12,1z"/>
   <path class="fil69" d="M111.1 62.82c1.27,0.23 0.36,-0.1 1.11,0.53 2.4,2.01 10.38,11.69 11.22,14.08 0.45,0.12 -0.06,-1.15 0.43,-0.03 0.53,-0.71 0.68,-2.06 0.52,-3.06l-0.33 -0.5c-0.07,0.51 -0.1,0.51 -0.11,1.08 -0.56,-1.72 -4.24,-6.39 -5.56,-7.78l-6.35 -6.86c-0.03,-0.14 -0.11,-0.16 -0.17,-0.23l-0.76 2.77z"/>
   <path class="fil27" d="M99.03 96.99c2.59,-0.97 3.27,4.78 4.03,6.21 1.34,2.54 0.13,-0.92 1.44,3.68 0.36,1.25 0.88,2.93 0.88,4.28l2.6 0c-0.19,-0.53 -0.24,-1.24 -0.37,-1.98l-1.03 -3.83c-0.32,-1.23 0.09,-0.82 -0.53,-2.08 -0.97,-1.96 -1.86,-5.15 -3.02,-6.72l-2.23 0.03c-1.18,0.68 0.34,0.22 -1.77,0.41z"/>
   <path class="fil83" d="M38.23 97.1l0.61 1.29c1.09,-0.19 0.97,-0.52 1.85,-1.72l5.28 -5.23c3.22,-2.4 3.35,-2.31 6.54,-3.95 0.34,-0.18 0.82,-0.45 1.24,-0.55 1.51,-0.37 -0.12,0.2 0.82,-0.03 -0.09,-0.68 0,-0.39 -0.5,-1.18 -0.41,-0.65 -0.1,-0.37 -0.75,-0.91 -0.41,0.43 -3.59,1.84 -4.45,2.36l-3.63 2.51c-0.4,0.29 -0.11,0.09 -0.43,0.32 -1.38,0.97 -2.66,1.94 -3.7,3.25l-1.34 1.97c-0.09,0.1 -0.62,0.42 -0.96,0.81 -0.4,0.46 -0.35,0.54 -0.58,1.06z"/>
   <path class="fil84" d="M58.26 110.9c1.59,0 1.97,0.23 3.32,0.27 1.16,0.03 2.41,-0.01 3.58,-0.01 2.47,0 4.94,0 7.41,0 -0.71,-1.74 -1.05,-0.88 -1.79,-1.79 -0.5,0.5 0.15,0.06 0,-0.41 -0.38,-0.15 -0.66,-0.17 -0.89,-0.25 -1.15,-0.39 0.23,0.29 -0.42,-0.23 -2.38,-1.91 -8.03,-0.61 -10.27,1.01 -0.87,0.64 -0.57,0.48 -0.94,1.41z"/>
   <path class="fil65" d="M86.42 43.03c0.37,0.81 2.28,1.1 4.15,1.84 1.72,0.67 2.97,1.23 4.64,1.99 1.67,0.75 7.72,3.95 8.55,5 0.43,-0.78 0.24,-0.24 0.56,-0.51 -0.32,-1.24 -1.05,-2.86 -1.82,-3.53 -0.37,0.25 -0.5,-0.1 -0.54,0.39 -1.22,-0.65 -1.96,-1.16 -3.06,-1.71 -3.14,-1.55 -6.38,-3.58 -10.02,-3.79l0.36 -0.46c-1.06,-0.09 -2.14,0.1 -2.82,0.78z"/>
   <path class="fil65" d="M112.39 55.96l-0.03 0.9c0.83,1.21 -0.34,1.15 1.12,2.41l5.11 5.11c0.87,1.09 5.51,7.08 6.16,7.41l-0.14 -0.61 0.21 -6.49c-0.41,0.46 -0.04,-0.18 -0.29,0.55 -0.21,0.62 0.05,-0.35 -0.1,0.43 -0.05,0.24 -0.06,0.82 -0.07,1.09l-0.17 1.72c-0.48,-1.05 -1.81,-2.61 -2.62,-3.51 -0.58,-0.64 -0.79,-1.05 -1.4,-1.67 -1.12,-1.15 -6.47,-7.09 -7.78,-7.34z"/>
   <path class="fil55" d="M111.86 60.05c0.06,0.07 0.14,0.09 0.17,0.23l6.35 6.86c1.32,1.39 5,6.06 5.56,7.78 0.01,-0.57 0.04,-0.57 0.11,-1.08l0.33 0.5c0.37,-0.64 0.32,-1.6 0.37,-2.55 -0.65,-0.33 -5.29,-6.32 -6.16,-7.41l-5.11 -5.11c-1.46,-1.26 -0.29,-1.2 -1.12,-2.41l-0.5 3.19z"/>
   <path class="fil80" d="M38.84 98.39c0.47,0.68 0.79,1.34 1.28,1.99 0.98,-0.73 2.78,-4.64 8.85,-8.74l6.49 -3.73c-0.37,-0.69 -0.33,-0.56 -0.89,-1 -0.94,0.23 0.69,-0.34 -0.82,0.03 -0.42,0.1 -0.9,0.37 -1.24,0.55 -3.19,1.64 -3.32,1.55 -6.54,3.95l-5.28 5.23c-0.88,1.2 -0.76,1.53 -1.85,1.72z"/>
   <path class="fil85" d="M37.31 94.56c0.22,0.92 0.57,1.73 0.92,2.54 0.23,-0.52 0.18,-0.6 0.58,-1.06 0.34,-0.39 0.87,-0.71 0.96,-0.81l1.34 -1.97c1.04,-1.31 2.32,-2.28 3.7,-3.25 0.32,-0.23 0.03,-0.03 0.43,-0.32l3.63 -2.51c0.86,-0.52 4.04,-1.93 4.45,-2.36l-0.6 -1.67c-1.19,0.14 0.05,-0.02 -2.42,1.11 -1.67,0.77 -4.67,2.77 -6.12,3.86 -3.08,2.31 -5.97,6.04 -6.87,6.44z"/>
   <path class="fil30" d="M36.8 92.66c0.06,0.86 0.23,1.3 0.51,1.9 0.9,-0.4 3.79,-4.13 6.87,-6.44 1.45,-1.09 4.45,-3.09 6.12,-3.86 2.47,-1.13 1.23,-0.97 2.42,-1.11 -0.13,-0.36 -0.1,-0.39 -0.27,-0.69 -0.41,-0.72 -0.09,-0.17 -0.38,-0.51 -1.33,0.46 1.23,0.08 -0.46,-0.14 -0.55,-0.07 -3.37,1.37 -3.9,1.66 -3.51,1.93 -6.65,4.62 -9.42,7.46 -0.52,0.54 -0.89,1.24 -1.49,1.73z"/>
   <path class="fil86" d="M35.77 75.69l0 3.46c3.49,-2.75 6.68,-4.91 10.78,-6.81 0.74,-0.35 1.39,-0.56 2.02,-0.8 1.19,-0.46 0.89,-0.53 1.46,-1.6l0 -1.75 -12.54 6.6c-0.6,0.47 -0.85,0.76 -1.72,0.9z"/>
   <path class="fil80" d="M95.1 111.16l1.82 0c-0.48,-2.23 -1.13,-3.8 -1.88,-5.82 -0.9,-2.4 -3,-6.53 -4.94,-7.87 0.55,0.11 0.02,0.08 0.26,-0.54l-0.63 -0.11 -4.64 0.24 0 -0.21c0.84,0 1.57,-0.09 2.16,0.4 0.32,0.26 1.67,2.49 2.77,3.6 0.99,0.99 0.86,1.48 1.84,2.78 0.03,0.04 0.08,0.1 0.11,0.14l3.13 7.39z"/>
   <path class="fil27" d="M35.77 85.28c0,1.21 -0.13,1.79 0.26,2.66l1.9 -1.46c0.8,-0.56 0.99,-0.96 1.65,-1.67l1.73 -1.33c3.03,-2.38 2.63,-1.58 4.23,-2.69 2.2,-1.52 2.79,-1.52 4.79,-2.38l0.46 -0.01c0.26,-0.02 -0.24,0.89 0.24,-0.17 0.08,-0.9 0.21,-0.63 -0.24,-1.32l-0.05 0.55c-0.46,-1.76 -0.01,-0.87 -0.65,-1.2l-6.53 3.3c-0.02,0.01 -0.42,0.28 -0.46,0.31 -0.31,0.2 -0.5,0.31 -0.78,0.49 -2.02,1.3 -6.13,4.8 -6.55,4.92z"/>
   <path class="fil87" d="M35.77 37.84l0 2.24c1.31,-0.09 1.16,-0.15 1.97,-0.46l11.89 -2.74c0.75,-0.29 0.41,0.17 0.54,-0.4 0.4,1.08 -0.05,0.11 0.49,0.54l0.25 -2.32 -0.54 -0.68c-0.47,0.87 0.12,0.14 -0.76,0.51l-2.64 0.68c-3.88,0.48 -8.17,1.99 -11.2,2.63z"/>
   <path class="fil88" d="M101.14 74.44c1.9,0.49 2.28,1.68 3.61,3 2.72,2.69 7.68,10.1 7.7,10.12 0.6,0.44 0.56,0.08 1.07,0.66l0.71 -0.3c-0.29,-1.03 -0.1,-0.01 -0.12,-0.69 -0.01,-0.94 -1.24,-2.6 -1.9,-3.22 -0.82,-0.78 -1.69,-3.1 -4.15,-5.78 -0.53,-0.57 -0.33,-0.45 -0.77,-1.01l-4.04 -4.03c-0.68,0.08 -0.38,-0.03 -1.19,0.49 -0.67,0.42 -0.37,0.1 -0.92,0.76z"/>
   <path class="fil89" d="M116.85 95.16c1.15,0.65 3.29,9.39 3.66,11.22 0.28,1.44 0.71,3.4 0.82,4.78 0.94,-0.02 1.07,-0.2 1.95,-0.26 0,-2.12 -1.23,-7.24 -1.75,-9.03 -0.54,-1.82 -1.7,-6.15 -2.62,-7.46 -0.84,0.02 -1.51,0.23 -2.06,0.75z"/>
   <path class="fil68" d="M103.25 73.19l4.04 4.03c0.44,0.56 0.24,0.44 0.77,1.01 2.46,2.68 3.33,5 4.15,5.78 0.66,0.62 1.89,2.28 1.9,3.22 0.02,0.68 -0.17,-0.34 0.12,0.69l1.78 -0.45c-0.12,-0.8 -0.15,-0.89 -0.36,-1.45 -0.43,-1.16 -1.26,-2.12 -1.95,-3.18 -0.95,-1.46 -4.27,-6.02 -5.8,-7.52 -1.1,-1.06 -1.74,-2.74 -3.28,-3.1 -0.88,0.19 -0.81,0.28 -1.37,0.97z"/>
   <path class="fil90" d="M127.8 23.88c0.25,0.69 0.49,1.05 0.97,1.71 1.33,-0.1 4.93,-1.98 7.69,-2.17 0.27,-0.98 -0.76,0.62 0,-0.62 3.74,-0.41 2.3,-0.62 3.92,-0.74 -0.19,-0.89 -0.03,0.48 -0.29,-0.79 0.88,-0.1 2.12,-0.71 2.82,-1 1.3,-0.53 1.44,-0.6 3.26,-0.68 0,-0.92 -0.13,-1.15 -0.26,-1.93 -2.19,0.11 -8.74,3.14 -11.16,4.07l-4.39 1.72c-0.99,0.28 -1.79,0.16 -2.56,0.43z"/>
   <path class="fil91" d="M91.45 31.2c-0.85,1.27 -3.19,0.6 -4.45,1.34 2.33,0.23 5.72,0.23 7.91,-0.31 0.69,-0.17 -0.18,-0.53 2.79,-0.28l5.15 0.06c1.65,-0.21 4.4,-0.72 5.57,0.31 0.17,-0.3 0.32,-0.66 0.53,-1.05 0.12,-0.2 0.25,-0.42 0.29,-0.49 0.4,-0.66 0.04,0.09 0.44,-0.73 -0.97,-0.21 -2.84,-0.08 -3.17,-0.08 -0.04,0 -1.88,0.05 -2.33,0.02 -2.01,-0.13 -4.07,-0.06 -6.11,-0.03 -0.69,0.64 -0.66,0.05 -3.2,0.74l-3.42 0.5z"/>
   <path class="fil74" d="M104.62 72.22c1.54,0.36 2.18,2.04 3.28,3.1 1.53,1.5 4.85,6.06 5.8,7.52 0.69,1.06 1.52,2.02 1.95,3.18 0.21,0.56 0.24,0.65 0.36,1.45l1.39 -0.8c-0.12,-0.61 0.33,-0.78 -0.72,-2.47 -1.73,-2.8 -8.24,-12.42 -10.9,-13.14 -0.73,0.32 -0.78,0.26 -1.16,1.16z"/>
   <path class="fil72" d="M36.03 87.94c0,1.38 0.23,1.65 0.26,2.7 0.58,-0.21 2.87,-2.81 3.44,-3.38 5.2,-5.23 9.67,-5.5 11.17,-7.62l0.06 -0.08c1.24,-1.22 -0.82,1.69 0.31,-0.26 0.04,-0.91 0.23,-0.45 -0.24,-1.07 -0.48,1.06 0.02,0.15 -0.24,0.17l-0.46 0.01c-2,0.86 -2.59,0.86 -4.79,2.38 -1.6,1.11 -1.2,0.31 -4.23,2.69l-1.73 1.33c-0.66,0.71 -0.85,1.11 -1.65,1.67l-1.9 1.46z"/>
   <path class="fil92" d="M49.93 62.38c0,0.89 0.01,1.73 -0.52,1.77l-0.59 0.02c-0.48,0.09 -0.32,0.08 -0.57,0.17l-4.85 2.07c-1.86,0.94 -6.77,3.86 -7.63,4l0 2.56c1.11,-0.33 1.93,-1.04 2.87,-1.6 0.92,-0.55 1.58,-1.23 3.01,-1.36l-0.01 -0.17c0,-0.01 0,-0.07 0,-0.08 0.21,-0.81 5.09,-2.66 6.49,-3.19l0.92 -0.37c0.05,-0.02 0.14,-0.07 0.18,-0.09 0.04,-0.02 0.12,-0.06 0.18,-0.09 0.13,0.33 0.05,0.21 0.3,0.51l0.66 0.64 -0.03 -2.2 -0.09 -4.56c-0.42,0.55 -0.36,1.13 -0.32,1.97z"/>
   <path class="fil26" d="M98.85 27.44c0.45,0.41 2.79,-0.07 3.89,0.03 2.96,0.28 1.46,-0.04 3.41,-0.29 0.91,-0.11 1.9,0.3 2.8,0.05 0,-0.01 1.41,-0.81 2.77,0.13 0.82,0.56 -0.22,0.67 -0.23,0.67l0.59 -0.04c1.69,-0.13 3.53,-0.23 4.78,-0.11 0.61,0.05 3.8,0.12 4.29,-0.14l-1.67 -1.76c-1.27,-0.35 -1.02,-0.28 -2.23,-0.2 -5.4,0.33 -1.37,-0.06 -4.01,-0.34l-7.16 0.41c-1.5,0.38 -2.75,0.47 -4.63,0.55 -0.23,0.91 0.48,-0.6 0.25,0.35 -0.67,0.04 -3,0.33 -2.85,0.69z"/>
   <path class="fil88" d="M50 56.28c0.23,1.66 -0.17,2.18 -0.43,3.5 -4.19,0.34 -12.01,5.5 -13.8,5.72l0 2.42 3.45 -1.59c2.49,-1.27 7.41,-4.09 10.31,-4.43 0,0.97 -0.08,0.09 0.4,0.48 -0.04,-0.84 -0.1,-1.42 0.32,-1.97l-0.01 -5.15c-0.31,0.35 -0.34,-0.24 -0.24,1.02z"/>
   <path class="fil89" d="M57.7 58.6l0.56 0.73c2.79,-0.06 4.01,-0.58 8.44,-0.52 3.59,0.04 2.82,1.01 3.35,-0.56 0.11,-0.33 -0.1,-0.47 0.27,-1.01l-0.01 -0.47 -0.33 -0.31c-0.03,-0.03 -0.18,-0.2 -0.22,-0.27 -1.94,0.12 -3.93,-0.06 -5.89,-0.01 -1.72,0.05 -3.54,0.29 -5.61,0.3l-0.56 -0.77 0 2.89z"/>
   <path class="fil93" d="M128.77 25.59l0.97 2.06c0.06,-0.04 0.14,-0.18 0.17,-0.12l16.51 -6.49c0,-1.02 0.13,-0.72 -0.25,-1.45 -1.82,0.08 -1.96,0.15 -3.26,0.68 -0.7,0.29 -1.94,0.9 -2.82,1 0.26,1.27 0.1,-0.1 0.29,0.79 -1.62,0.12 -0.18,0.33 -3.92,0.74 -0.76,1.24 0.27,-0.36 0,0.62 -2.76,0.19 -6.36,2.07 -7.69,2.17z"/>
   <path class="fil71" d="M99.49 75.24c1.74,0.63 4.84,4.46 6.13,5.95 0.94,1.1 1.82,2.29 2.66,3.48 0.92,1.29 1.54,2.55 2.42,3.78l0.13 0.29 2.69 -0.52c-0.51,-0.58 -0.47,-0.22 -1.07,-0.66 -0.02,-0.02 -4.98,-7.43 -7.7,-10.12 -1.33,-1.32 -1.71,-2.51 -3.61,-3 -0.77,0.04 -1.15,0.2 -1.65,0.8z"/>
   <path class="fil94" d="M58.05 69.59c0.5,-1.78 -0.17,-3.99 -0.02,-6.19 2.21,0.09 4.63,-0.05 6.88,-0.05 2.41,0 5,0.2 6.96,0.24l-1.03 -3.11 -0.82 0.75c-1.99,0 -3.79,-0.3 -6.15,-0.27 -1.71,0.02 -3.98,0.49 -5.61,0.52 -0.35,-0.4 -0.18,0.26 -0.55,-0.82l0.21 8.52c0.01,0.07 0.05,0.16 0.06,0.21 0.01,0.05 0.04,0.14 0.07,0.2z"/>
   <path class="fil71" d="M35.77 67.92l0 2.49c0.86,-0.14 5.77,-3.06 7.63,-4l4.85 -2.07c0.25,-0.09 0.09,-0.08 0.57,-0.17l0.59 -0.02c0.53,-0.04 0.52,-0.88 0.52,-1.77 -0.48,-0.39 -0.4,0.49 -0.4,-0.48 -2.9,0.34 -7.82,3.16 -10.31,4.43l-3.45 1.59z"/>
   <path class="fil92" d="M97.48 75.94c2.21,1.18 0.72,0.21 1.52,1.14 0.4,0.47 1.1,0.98 1.58,1.47l2.81 3.07c1.28,1.22 4.58,5.41 4.87,6.65l2.44 0.18c-0.88,-1.23 -1.5,-2.49 -2.42,-3.78 -0.84,-1.19 -1.72,-2.38 -2.66,-3.48 -1.29,-1.49 -4.39,-5.32 -6.13,-5.95 -0.71,0.01 -0.37,-0.08 -1.08,0.16 -0.13,0.05 -0.44,0.22 -0.56,0.29l-0.37 0.25z"/>
   <path class="fil30" d="M93.11 96.79c1.86,0.71 1.26,-0.54 3.02,2.58l1.09 1.7c0.48,0.71 0.42,1.12 0.72,1.87 0.77,1.9 2.5,5.8 2.55,8.22l1.89 0c0,-1.06 -0.09,-1.36 -0.36,-2.27 -0.32,-1.08 -0.23,-0.98 -0.46,-2.08 -0.21,-1.08 -2.91,-7.43 -3.92,-8.72 -0.73,-0.92 -0.75,-0.18 -0.7,-0.97l2.09 -0.13c2.11,-0.19 0.59,0.27 1.77,-0.41l-6.92 0.03 -0.77 0.18z"/>
   <path class="fil78" d="M58.05 69.59c-0.3,0.92 -0.15,1.38 -0.11,2.42l0.15 -0.46 0 -1.28 0.01 -2.52 0.28 -2.33c0.52,0.71 0.16,0.44 1.39,0.43l5.65 -0.31c1.37,0 2.73,0.04 4.1,0.07 0.9,0.02 1.22,0.1 1.91,0.2 1.03,0.14 0.72,0.28 1.06,-0.41l-0.62 -1.81c-1.96,-0.04 -4.55,-0.24 -6.96,-0.24 -2.25,0 -4.67,0.14 -6.88,0.05 -0.15,2.2 0.52,4.41 0.02,6.19z"/>
   <path class="fil95" d="M92.29 76.61l1.03 0.49c1.27,0.43 0.32,-0.21 1.03,0.52l0.25 0.23c0.13,0.13 0.29,0.27 0.4,0.37 3.1,2.65 4.72,4.07 7.25,7.37l0.8 0.97c1.48,1.75 0.57,1.79 2.96,1.86 0.41,-0.57 0.38,-0.04 0.08,-0.78 -0.38,-0.93 -3.75,-4.92 -4.75,-6.01l-0.48 -0.54c-2.24,-2.89 -2.89,-2.22 -4.05,-4.02l-0.48 -0.65c-0.03,-0.03 -0.13,-0.06 -0.16,-0.15 -0.02,-0.11 -0.13,-0.1 -0.17,-0.17l-3.71 0.51z"/>
   <path class="fil38" d="M36.29 90.64c0.12,0.62 0.21,1.54 0.51,2.02 0.6,-0.49 0.97,-1.19 1.49,-1.73 2.77,-2.84 5.91,-5.53 9.42,-7.46 0.53,-0.29 3.35,-1.73 3.9,-1.66 1.69,0.22 -0.87,0.6 0.46,0.14 0.03,-0.76 -0.34,-2.11 -0.8,-2.65 -1.13,1.95 0.93,-0.96 -0.31,0.26l-0.06 0.08c-1.5,2.12 -5.97,2.39 -11.17,7.62 -0.57,0.57 -2.86,3.17 -3.44,3.38z"/>
   <path class="fil96" d="M41.12 9.71l0.02 0.43c1.35,-0.4 2.32,-1.24 3.61,-1.71 1.43,-0.52 2.19,-1.01 3.37,-1.73 4.72,-2.9 4.21,-3.99 5.2,-5.05l-0.93 0.14c-0.99,-0.33 -2.23,0.46 -3.5,1.1 -0.98,0.5 -2.2,1.18 -3.04,1.81 -1.01,0.77 -4.61,3.62 -4.73,5.01z"/>
   <path class="fil97" d="M112.51 53.86l-0.12 2.1c1.31,0.25 6.66,6.19 7.78,7.34 0.61,0.62 0.82,1.03 1.4,1.67 0.81,0.9 2.14,2.46 2.62,3.51l0.17 -1.72c0.03,-1.38 -0.1,-1.59 -0.67,-2.37l-9.47 -9.71c-1.53,-1.27 -1.1,-1.43 -1.32,-0.58l-0.39 -0.24z"/>
   <path class="fil64" d="M40.12 100.38c0.27,0.46 0.43,0.66 0.77,1.24 0.9,-0.5 2.12,-2.63 3.42,-3.9 1.34,-1.31 2.43,-2.43 3.83,-3.57 2.72,-2.21 0.61,-1.23 4.44,-2.92l3.27 -1.56c0.38,-0.17 0.82,0.23 1.23,-0.05 -0.42,-0.6 -1.12,-1.17 -1.62,-1.71l-6.49 3.73c-6.07,4.1 -7.87,8.01 -8.85,8.74z"/>
   <path class="fil95" d="M103.75 96.55l4.1 0.29 1.01 -0.1c0.02,0.07 0.03,0.11 0.03,0.17l2.31 5.05c0.06,0.15 0.25,0.9 0.28,1.01 0.63,2.09 1.81,5.73 1.82,8.19l1.75 0c0.02,-2.44 -0.94,-5.62 -1.47,-7.5 -0.37,-1.32 -0.66,-2.27 -1.11,-3.5 -0.37,-1 -1,-2.18 -1.2,-3.31l-1.41 -0.6 -6.11 0.3z"/>
   <path class="fil12" d="M35.77 40.08l0 2.03 13.36 -3.14c1.34,-0.05 0.53,-0.06 1.07,0.24l0.22 0.95 0.24 -3.14c-0.54,-0.43 -0.09,0.54 -0.49,-0.54 -0.13,0.57 0.21,0.11 -0.54,0.4l-11.89 2.74c-0.81,0.31 -0.66,0.37 -1.97,0.46z"/>
   <path class="fil83" d="M96.92 111.16l1.82 0c-0.08,-1.01 -0.35,-1.56 -0.6,-2.51 -0.47,-1.77 -1.34,-4.71 -2.27,-6.22 -0.57,-0.92 -2.69,-4.74 -3.51,-5.22 -0.04,-0.02 -0.11,-0.06 -0.16,-0.08 -0.35,-0.16 -0.28,-0.14 -0.68,-0.21 -0.64,-0.11 -0.58,-0.08 -1.16,0.01 -0.24,0.62 0.29,0.65 -0.26,0.54 1.94,1.34 4.04,5.47 4.94,7.87 0.75,2.02 1.4,3.59 1.88,5.82z"/>
   <path class="fil98" d="M111.1 48.04c0.17,0.81 0.12,1.1 0.68,1.67 0.39,-0.78 0.44,0.07 2.7,1.91 1.22,0.99 2.47,1.97 3.58,3.07 1.43,1.42 5.42,5.94 6.8,6.54l-0.24 -2.72c-0.23,-0.08 -0.78,-1.17 -0.23,0.57 -1.32,-1.79 -4.44,-5.04 -6.17,-6.38 -1.11,-0.87 -2.18,-1.91 -3.31,-2.82 -3.36,-2.71 -2.28,-2.19 -3.81,-1.84z"/>
   <path class="fil95" d="M58.1 67.75c1.89,0.18 13.39,-0.99 15.4,0.38l0.23 -0.62c-0.09,-0.65 0.03,-0.33 -0.38,-1.07 -0.35,-0.65 -0.42,-0.68 -0.86,-1.04 -0.34,0.69 -0.03,0.55 -1.06,0.41 -0.69,-0.1 -1.01,-0.18 -1.91,-0.2 -1.37,-0.03 -2.73,-0.07 -4.1,-0.07l-5.65 0.31c-1.23,0.01 -0.87,0.28 -1.39,-0.43l-0.28 2.33z"/>
   <path class="fil4" d="M35.77 42.11l0 2.17 6.65 -1.4c0.19,-0.56 0.29,0.39 -0.1,-0.18 -0.29,-0.43 -0.25,0.2 -0.16,-0.21l7.95 -1.86 0.09 -1.42c-0.54,-0.3 0.27,-0.29 -1.07,-0.24l-13.36 3.14z"/>
   <path class="fil76" d="M87.52 111.16l2.08 0 -4.42 -8.76c-1.74,-2.35 -1.59,-1.87 -3.26,-3.19 -2.16,-1.68 -1.94,-2.65 -4.25,-2.42l-1.4 0.45c2.38,0.2 8,6.55 8.35,7.17 0.23,0.42 0,0.23 0.28,0.88 0.21,0.51 0.33,0.56 0.64,1.11 0.73,1.26 1.79,3.01 1.98,4.76z"/>
   <path class="fil99" d="M57.7 50.48l0 1.29 0.56 0.91 11.99 -0.29c-0.03,0.05 -0.09,0.06 -0.1,0.14 0,0.09 -0.06,0.13 -0.06,0.17 0,0.62 -0.03,0.19 0.11,0.67 0.39,-0.64 0.53,-1.98 0.48,-2.87 -0.56,-1.07 -0.1,-0.24 -0.35,-0.26l-5.68 -0.02c-2.37,-0.01 -4.32,0.33 -6.95,0.26z"/>
   <path class="fil71" d="M57.7 58.6l0.01 2.06c0.37,1.08 0.2,0.42 0.55,0.82 1.63,-0.03 3.9,-0.5 5.61,-0.52 2.36,-0.03 4.16,0.27 6.15,0.27l0.82 -0.75 -0.52 -3.24c-0.37,0.54 -0.16,0.68 -0.27,1.01 -0.53,1.57 0.24,0.6 -3.35,0.56 -4.43,-0.06 -5.65,0.46 -8.44,0.52l-0.56 -0.73z"/>
   <path class="fil94" d="M93.86 69.04l-1.88 -0.84c-4.68,-2.48 -4.32,-2.67 -10.1,-4.75 -1.6,-0.57 -0.96,-0.53 -1.54,-0.06 0.28,1.63 3.7,3.89 5.07,4.53 2.49,1.18 5.46,1.52 8.45,1.12z"/>
   <path class="fil79" d="M35.77 45.96l0 2.37 5.12 -1.51c0,-0.51 -0.33,0.24 0,-0.41 3.02,-0.31 6.5,-1.66 9.48,-2.29l0.04 -1.45c-0.33,-0.24 -0.74,-0.01 -0.33,-0.51 -1.09,1.13 1.15,-0.4 -0.54,0.32 -1.27,0.54 0.56,-0.15 -0.41,0.14 -0.04,0.01 -0.76,0.16 -0.86,0.18 -3.71,0.72 -9.92,3.02 -12.5,3.16z"/>
   <path class="fil85" d="M90.36 96.93c0.58,-0.09 0.52,-0.12 1.16,-0.01 0.4,0.07 0.33,0.05 0.68,0.21 0.05,0.02 0.12,0.06 0.16,0.08 0.82,0.48 2.94,4.3 3.51,5.22 0.93,1.51 1.8,4.45 2.27,6.22 0.25,0.95 0.52,1.5 0.6,2.51l1.75 0c-0.05,-2.42 -1.78,-6.32 -2.55,-8.22 -0.3,-0.75 -0.24,-1.16 -0.72,-1.87l-1.09 -1.7c-1.76,-3.12 -1.16,-1.87 -3.02,-2.58l-3.38 0.03 0.63 0.11z"/>
   <path class="fil62" d="M100.47 89.02l2.23 -0.13 0.84 -0.14 -11.17 -10.91c-1.83,-1.64 -1.33,-0.15 -1.74,-1.22l-1.03 0.13 -1.44 0.17c0.6,0.24 1.05,0.38 1.72,0.2l-1.43 0.27c2.31,1.26 3.29,2.29 5.19,3.75 0.42,0.33 0.53,0.35 0.88,0.65l3.59 3.57c0.98,1.01 1.78,2.72 2.87,3.01 -0.47,0.24 -0.36,0.5 -0.51,0.65z"/>
   <path class="fil78" d="M96 76.1c0.04,0.07 0.15,0.06 0.17,0.17 0.03,0.09 0.13,0.12 0.16,0.15l0.48 0.65c1.16,1.8 1.81,1.13 4.05,4.02l0.48 0.54c1,1.09 4.37,5.08 4.75,6.01 0.3,0.74 0.33,0.21 -0.08,0.78l-2.47 0.33 -0.84 0.14c1.49,-0.16 3.37,-0.46 4.75,-0.07l3.38 -0.08 -0.13 -0.29 -2.44 -0.18c-0.29,-1.24 -3.59,-5.43 -4.87,-6.65l-2.81 -3.07c-0.48,-0.49 -1.18,-1 -1.58,-1.47 -0.8,-0.93 0.69,0.04 -1.52,-1.14l-1.48 0.16z"/>
   <path class="fil51" d="M117.73 31.78c0.39,0.94 0.79,2.63 0.07,3.48 1.88,0.37 0.79,0.22 1.84,1.22 0.56,0.53 1,0.5 1.74,1.07 1.81,1.4 1.66,1.98 3.23,2.34l0.14 -0.41 -0.52 -4.73 -0.36 0.37c-0.99,-0.37 -2.57,-1.56 -3.26,-2.16 -1.68,-1.45 1.32,-1.04 -2.88,-1.18z"/>
   <path class="fil17" d="M35.77 52.39l0 1.82c0.53,-0.12 1.14,-0.21 1.73,-0.37l5.48 -1.45c2.98,-0.65 1.44,-0.65 2.9,-1.08 1.29,-0.38 2.65,-0.44 3.69,-0.89l0.45 0.59 0.26 0 0.01 -2.1c-1.41,-0.22 -2.68,0.34 -4.04,0.66 -0.48,0.12 -1.41,0.22 -1.87,0.37l-6.61 2.09c-1.03,0.16 -1.18,-0.01 -2,0.36z"/>
   <path class="fil100" d="M111.45 111.16l1.85 0c-0.01,-2.46 -1.19,-6.1 -1.82,-8.19 -0.03,-0.11 -0.22,-0.86 -0.28,-1.01l-2.31 -5.05c0,-0.06 -0.01,-0.1 -0.03,-0.17l-1.01 0.1c-0.13,0.13 -0.34,0.41 -0.5,0.52l2.56 6.37c0.31,1.9 1.48,5.06 1.54,7.43z"/>
   <path class="fil41" d="M35.77 31.87l0 2.17c1.75,0.04 14.1,-3.71 16.18,-3.8l0.44 -1.62 -4.38 0.88c-1.96,0.34 -6.54,1.91 -7.65,2.01 -1.59,0.14 -2.82,0.44 -4.59,0.36z"/>
   <path class="fil100" d="M103.54 88.75l2.47 -0.33c-2.39,-0.07 -1.48,-0.11 -2.96,-1.86l-0.8 -0.97c-2.53,-3.3 -4.15,-4.72 -7.25,-7.37 -0.11,-0.1 -0.27,-0.24 -0.4,-0.37l-0.25 -0.23c-0.71,-0.73 0.24,-0.09 -1.03,-0.52l-1.03 -0.49 -1.66 0.01c0.41,1.07 -0.09,-0.42 1.74,1.22l11.17 10.91z"/>
   <path class="fil44" d="M35.77 44.28l0 1.68c2.58,-0.14 8.79,-2.44 12.5,-3.16 0.1,-0.02 0.82,-0.17 0.86,-0.18 0.97,-0.29 -0.86,0.4 0.41,-0.14 1.69,-0.72 -0.55,0.81 0.54,-0.32 -0.41,0.5 0,0.27 0.33,0.51l0.01 -2.51 -0.22 -0.95 -0.09 1.42 -7.95 1.86c-0.09,0.41 -0.13,-0.22 0.16,0.21 0.39,0.57 0.29,-0.38 0.1,0.18l-6.65 1.4z"/>
   <path class="fil35" d="M115.25 38.26c0.12,0.72 -0.18,-0.02 1.34,0.99 0.56,0.38 0.8,0.61 1.31,0.99 0.93,0.69 1.76,1.31 2.59,2.04 0.58,0.52 0.85,0.68 1.4,1.15 0.51,0.44 0.68,0.69 1.2,1.09 0.62,0.47 0.6,0.51 1.11,1 0.4,0.39 0.19,0.29 0.57,1.21l0.17 0 -0.19 -7.25 -0.14 0.41 -0.3 2.71 -7.23 -5.67c-0.83,0.41 -0.38,0.23 -1.17,0.82 -0.32,0.23 -0.51,0.27 -0.66,0.51z"/>
   <path class="fil101" d="M113.47 38.57c-0.71,0.51 -0.03,-0.19 -0.71,0.71 2.06,0.28 7.35,5.13 9.21,6.64 1.29,1.04 1.26,1.82 2.96,2.33l-0.16 -1.52c-0.38,-0.92 -0.17,-0.82 -0.57,-1.21 -0.51,-0.49 -0.49,-0.53 -1.11,-1 -0.52,-0.4 -0.69,-0.65 -1.2,-1.09 -0.55,-0.47 -0.82,-0.63 -1.4,-1.15 -0.83,-0.73 -1.66,-1.35 -2.59,-2.04 -0.51,-0.38 -0.75,-0.61 -1.31,-0.99 -1.52,-1.01 -1.22,-0.27 -1.34,-0.99l-1.78 0.31z"/>
   <path class="fil74" d="M57.7 53.84l0 1.87 0.56 0.77c2.07,-0.01 3.89,-0.25 5.61,-0.3 1.96,-0.05 3.95,0.13 5.89,0.01 0.04,0.07 0.19,0.24 0.22,0.27l0.33 0.31 -0.11 -3.4c-0.14,-0.48 -0.11,-0.05 -0.11,-0.67 0,-0.04 0.06,-0.08 0.06,-0.17 0.01,-0.08 0.07,-0.09 0.1,-0.14l-0.43 1.7c-0.01,-0.03 -0.03,0.14 -0.06,0.21 -4.24,-0.27 -7.4,0.07 -11.56,0.27l-0.5 -0.73z"/>
   <path class="fil97" d="M102.5 47.82c-0.8,-1.69 -3.09,-3.57 -5.21,-4.57 -1.78,-0.85 -6.13,-2.28 -8.05,-1l-0.36 0.46c3.64,0.21 6.88,2.24 10.02,3.79 1.1,0.55 1.84,1.06 3.06,1.71 0.04,-0.49 0.17,-0.14 0.54,-0.39z"/>
   <path class="fil102" d="M35.77 50.57l0 1.82c0.82,-0.37 0.97,-0.2 2,-0.36l6.61 -2.09c0.46,-0.15 1.39,-0.25 1.87,-0.37 1.36,-0.32 2.63,-0.88 4.04,-0.66l-0.11 -1.86 -6.48 1.59c-0.75,0.17 -1.41,0.35 -2.13,0.51l-3.93 0.98c-0.74,0.25 -0.91,0.37 -1.87,0.44z"/>
   <path class="fil102" d="M57.74 45.72l-0.02 1.43c1.43,-0.48 14.37,-3.17 15.5,-2.74 0.75,-0.48 0.55,-0.39 0.99,-1.27 -3.85,-0.27 -5.55,0.77 -8.8,1 -4.49,0.32 -3.39,0.45 -4.93,0.76 -1.09,0.23 -1.15,-0.2 -2.74,0.82z"/>
   <path class="fil103" d="M57.7 53.84l0.5 0.73c4.16,-0.2 7.32,-0.54 11.56,-0.27 0.03,-0.07 0.05,-0.24 0.06,-0.21l0.43 -1.7 -11.99 0.29 -0.56 -0.91 0 2.07z"/>
   <path class="fil104" d="M57.72 47.15l-0.01 1.32c0.97,-0.39 13.1,-3.13 14.67,-2.23 0.5,-0.71 0.77,-1.04 0.84,-1.83 -1.13,-0.43 -14.07,2.26 -15.5,2.74z"/>
   <path class="fil105" d="M35.77 48.33l0 1.24c2.1,-0.37 5.95,-2.03 10.55,-2.92 0.72,-0.14 0.13,0.01 0.79,-0.19 0.67,-0.21 0.49,-0.23 1.2,-0.37 0.69,-0.14 0.87,0.03 1.33,-0.34l0.19 -0.26c0,2.33 -0.05,0.56 0.5,1.27l0.04 -2.64c-2.98,0.63 -6.46,1.98 -9.48,2.29 -0.33,0.65 0,-0.1 0,0.41l-5.12 1.51z"/>
   <path class="fil93" d="M112.08 27.99c0.06,0.05 0.16,0.02 0.21,0.12l0.91 0.3c0.28,0.04 0.8,-0.03 0.98,-0.04 -0.15,0 -0.91,-0.03 -0.99,-0.02 -0.56,0.09 0.1,-0.09 -0.51,0.11 -0.68,0.23 -0.3,0.04 -0.75,0.4 1.4,-0.14 2.22,-0.23 3.48,0.38 0.82,0.4 1.29,1.16 1.9,1.43 0.75,-0.62 0.25,-0.26 1.11,-0.2 0.63,0.04 0.91,0.1 1.63,0.07 0.83,-0.03 0.53,-0.07 1.41,0.02 0.72,0.07 1.13,0.19 1.39,0.13 -0.11,-1 -0.88,-2.24 -1.7,-2.95 -0.49,0.26 -3.68,0.19 -4.29,0.14 -1.25,-0.12 -3.09,-0.02 -4.78,0.11z"/>
   <path class="fil82" d="M35.77 49.57l0 1c0.96,-0.07 1.13,-0.19 1.87,-0.44l3.93 -0.98c0.72,-0.16 1.38,-0.34 2.13,-0.51l6.48 -1.59 0.11 1.86 -0.01 2.1 -0.04 4.25 0.01 5.15 0.09 4.56 -0.01 -18.21c-0.55,-0.71 -0.5,1.06 -0.5,-1.27l-0.19 0.26c-0.46,0.37 -0.64,0.2 -1.33,0.34 -0.71,0.14 -0.53,0.16 -1.2,0.37 -0.66,0.2 -0.07,0.05 -0.79,0.19 -4.6,0.89 -8.45,2.55 -10.55,2.92z"/>
   <path class="fil43" d="M117.08 36.93l7.23 5.67 0.3 -2.71c-1.57,-0.36 -1.42,-0.94 -3.23,-2.34 -0.74,-0.57 -1.18,-0.54 -1.74,-1.07 -1.05,-1 0.04,-0.85 -1.84,-1.22l-0.72 1.67z"/>
   <path class="fil40" d="M117.31 30.67l0.42 1.11c4.2,0.14 1.2,-0.27 2.88,1.18 0.69,0.6 2.27,1.79 3.26,2.16l0.36 -0.37c-0.18,-1.37 -0.55,-3.22 -1.38,-4.06 -0.26,0.06 -0.67,-0.06 -1.39,-0.13 -0.88,-0.09 -0.58,-0.05 -1.41,-0.02 -0.72,0.03 -1,-0.03 -1.63,-0.07 -0.86,-0.06 -0.36,-0.42 -1.11,0.2z"/>
  </g>
 </g>
</svg>
